<svg width="41" height="38" viewBox="0 0 41 38" fill="none" xmlns="http://www.w3.org/2000/svg">
<path d="M15.4409 25.0304C23.5744 25.0304 30.4409 26.3687 30.4409 31.5375C30.4409 36.7063 23.5304 38 15.4409 38C7.30727 38 0.440857 36.6596 0.440857 31.4929C0.440857 26.3241 7.34931 25.0304 15.4409 25.0304ZM34.4388 10C35.4313 10 36.2367 10.8189 36.2367 11.8232V14.1757H38.6429C39.6333 14.1757 40.4409 14.9946 40.4409 15.999C40.4409 17.0033 39.6333 17.8222 38.6429 17.8222H36.2367V20.1768C36.2367 21.1811 35.4313 22 34.4388 22C33.4484 22 32.6409 21.1811 32.6409 20.1768V17.8222H30.2388C29.2463 17.8222 28.4409 17.0033 28.4409 15.999C28.4409 14.9946 29.2463 14.1757 30.2388 14.1757H32.6409V11.8232C32.6409 10.8189 33.4484 10 34.4388 10ZM15.4409 0C20.95 0 25.3661 4.47326 25.3661 10.0537C25.3661 15.6341 20.95 20.1074 15.4409 20.1074C9.93172 20.1074 5.51559 15.6341 5.51559 10.0537C5.51559 4.47326 9.93172 0 15.4409 0Z" fill="black"/>
</svg>
