<svg width="159" height="26" viewBox="0 0 159 26" fill="none" xmlns="http://www.w3.org/2000/svg">
<path d="M2 6V19" stroke="#A1A3A8" stroke-width="3" stroke-linecap="round"/>
<path d="M12 6V19" stroke="#A1A3A8" stroke-width="3" stroke-linecap="round"/>
<path d="M22 6V19" stroke="#A1A3A8" stroke-width="3" stroke-linecap="round"/>
<path d="M32 6V19" stroke="#A1A3A8" stroke-width="3" stroke-linecap="round"/>
<path d="M37 6V19" stroke="#A1A3A8" stroke-width="3" stroke-linecap="round"/>
<path d="M52 6V19" stroke="#A1A3A8" stroke-width="3" stroke-linecap="round"/>
<path d="M27 10L27 16" stroke="#A1A3A8" stroke-width="3" stroke-linecap="round"/>
<path d="M57 9L57 17" stroke="#A1A3A8" stroke-width="3" stroke-linecap="round"/>
<path d="M17 2L17 24" stroke="#A1A3A8" stroke-width="3" stroke-linecap="round"/>
<path d="M42 2L42 24" stroke="#A1A3A8" stroke-width="3" stroke-linecap="round"/>
<path d="M62 2L62 24" stroke="#A1A3A8" stroke-width="3" stroke-linecap="round"/>
<path d="M7 5L7 21" stroke="#A1A3A8" stroke-width="3" stroke-linecap="round"/>
<path d="M47 5L47 21" stroke="#A1A3A8" stroke-width="3" stroke-linecap="round"/>
<path d="M67 6V19" stroke="#A1A3A8" stroke-width="3" stroke-linecap="round"/>
<path d="M77 6V19" stroke="#A1A3A8" stroke-width="3" stroke-linecap="round"/>
<path d="M87 6V19" stroke="#A1A3A8" stroke-width="3" stroke-linecap="round"/>
<path d="M97 6V19" stroke="#A1A3A8" stroke-width="3" stroke-linecap="round"/>
<path d="M102 6V19" stroke="#A1A3A8" stroke-width="3" stroke-linecap="round"/>
<path d="M117 6V19" stroke="#A1A3A8" stroke-width="3" stroke-linecap="round"/>
<path d="M92 10L92 16" stroke="#A1A3A8" stroke-width="3" stroke-linecap="round"/>
<path d="M122 9L122 17" stroke="#A1A3A8" stroke-width="3" stroke-linecap="round"/>
<path d="M82 2L82 24" stroke="#A1A3A8" stroke-width="3" stroke-linecap="round"/>
<path d="M107 2L107 24" stroke="#A1A3A8" stroke-width="3" stroke-linecap="round"/>
<path d="M72 5L72 21" stroke="#A1A3A8" stroke-width="3" stroke-linecap="round"/>
<path d="M112 5L112 21" stroke="#A1A3A8" stroke-width="3" stroke-linecap="round"/>
<path d="M132 6V19" stroke="#A1A3A8" stroke-width="3" stroke-linecap="round"/>
<path d="M137 6V19" stroke="#A1A3A8" stroke-width="3" stroke-linecap="round"/>
<path d="M152 6V19" stroke="#A1A3A8" stroke-width="3" stroke-linecap="round"/>
<path d="M127 10L127 16" stroke="#A1A3A8" stroke-width="3" stroke-linecap="round"/>
<path d="M157 9L157 17" stroke="#A1A3A8" stroke-width="3" stroke-linecap="round"/>
<path d="M142 2L142 24" stroke="#A1A3A8" stroke-width="3" stroke-linecap="round"/>
<path d="M147 5L147 21" stroke="#A1A3A8" stroke-width="3" stroke-linecap="round"/>
</svg>
