<svg width="52" height="33" viewBox="0 0 52 33" fill="none" xmlns="http://www.w3.org/2000/svg">
<rect y="3" width="50" height="30" rx="4" fill="#C4C4C4"/>
<rect y="7" width="50" height="5" fill="#6C6C6C"/>
<rect x="7" y="17" width="37" height="5" rx="2.5" fill="white"/>
<circle cx="44.5" cy="7.5" r="7.5" fill="#434343"/>
<path d="M41.9064 5.81091V10H41.3991V6.34273H41.3745L40.3518 7.02182V6.50636L41.3991 5.81091H41.9064ZM43.1111 10V9.63182L44.4939 8.11818C44.6561 7.94091 44.7898 7.78682 44.8948 7.65591C44.9998 7.52364 45.0775 7.39955 45.128 7.28364C45.1798 7.16636 45.2057 7.04364 45.2057 6.91545C45.2057 6.76818 45.1702 6.64068 45.0993 6.53295C45.0298 6.42523 44.9343 6.34205 44.813 6.28341C44.6916 6.22477 44.5552 6.19545 44.4039 6.19545C44.243 6.19545 44.1025 6.22886 43.9825 6.29568C43.8639 6.36114 43.7718 6.45318 43.7064 6.57182C43.6423 6.69045 43.6102 6.82955 43.6102 6.98909H43.1275C43.1275 6.74364 43.1841 6.52818 43.2973 6.34273C43.4105 6.15727 43.5645 6.01273 43.7595 5.90909C43.9559 5.80545 44.1761 5.75364 44.4202 5.75364C44.6657 5.75364 44.8832 5.80545 45.0727 5.90909C45.2623 6.01273 45.4109 6.1525 45.5186 6.32841C45.6264 6.50432 45.6802 6.7 45.6802 6.91545C45.6802 7.06955 45.6523 7.22023 45.5964 7.3675C45.5418 7.51341 45.4464 7.67636 45.31 7.85636C45.175 8.035 44.9875 8.25318 44.7475 8.51091L43.8066 9.51727V9.55H45.7539V10H43.1111ZM48.0141 10.0573C47.7441 10.0573 47.5034 10.0109 47.292 9.91818C47.082 9.82545 46.915 9.69659 46.7909 9.53159C46.6682 9.36523 46.6014 9.17227 46.5905 8.95273H47.1059C47.1168 9.08773 47.1632 9.20432 47.245 9.3025C47.3268 9.39932 47.4339 9.47432 47.5661 9.5275C47.6984 9.58068 47.845 9.60727 48.0059 9.60727C48.1859 9.60727 48.3455 9.57591 48.4845 9.51318C48.6236 9.45045 48.7327 9.36318 48.8118 9.25136C48.8909 9.13955 48.9305 9.01 48.9305 8.86273C48.9305 8.70864 48.8923 8.57295 48.8159 8.45568C48.7395 8.33705 48.6277 8.24432 48.4805 8.1775C48.3332 8.11068 48.1532 8.07727 47.9405 8.07727H47.605V7.62727H47.9405C48.1068 7.62727 48.2527 7.59727 48.3782 7.53727C48.505 7.47727 48.6039 7.39273 48.6748 7.28364C48.747 7.17455 48.7832 7.04636 48.7832 6.89909C48.7832 6.75727 48.7518 6.63386 48.6891 6.52886C48.6264 6.42386 48.5377 6.34205 48.4232 6.28341C48.31 6.22477 48.1764 6.19545 48.0223 6.19545C47.8777 6.19545 47.7414 6.22205 47.6132 6.27523C47.4864 6.32705 47.3827 6.40273 47.3023 6.50227C47.2218 6.60045 47.1782 6.71909 47.1714 6.85818H46.6805C46.6886 6.63864 46.7548 6.44636 46.8789 6.28136C47.003 6.115 47.1652 5.98545 47.3657 5.89273C47.5675 5.8 47.7891 5.75364 48.0305 5.75364C48.2895 5.75364 48.5118 5.80614 48.6973 5.91114C48.8827 6.01477 49.0252 6.15182 49.1248 6.32227C49.2243 6.49273 49.2741 6.67682 49.2741 6.87455C49.2741 7.11045 49.212 7.31159 49.088 7.47795C48.9652 7.64432 48.7982 7.75955 48.5868 7.82364V7.85636C48.8514 7.9 49.058 8.0125 49.2066 8.19386C49.3552 8.37386 49.4295 8.59682 49.4295 8.86273C49.4295 9.09045 49.3675 9.295 49.2434 9.47636C49.1207 9.65636 48.953 9.79818 48.7402 9.90182C48.5275 10.0055 48.2855 10.0573 48.0141 10.0573Z" fill="white"/>
</svg>
