<svg width="28" height="25" viewBox="0 0 28 25" fill="none" xmlns="http://www.w3.org/2000/svg">
<path d="M3.30214 14.1198L12.2775 22.6524L12.3006 22.6743C12.607 22.9656 12.8718 23.2174 13.1116 23.3919C13.3691 23.5793 13.6531 23.7202 14 23.7202C14.3469 23.7202 14.6309 23.5793 14.8884 23.3919C15.1282 23.2174 15.393 22.9656 15.6994 22.6743L15.7225 22.6524L24.6979 14.1198C27.5254 11.4318 27.8696 7.04382 25.496 3.94773L25.0304 3.34047C22.1277 -0.445704 16.2466 0.184196 14.2116 4.49923C14.1272 4.67807 13.8728 4.67807 13.7884 4.49923C11.7534 0.184196 5.87229 -0.445702 2.96958 3.34047L2.50401 3.94773C0.13036 7.04382 0.474655 11.4318 3.30214 14.1198Z" fill="#E6E9F0" stroke="#E6E9F0"/>
</svg>
