<svg width="23" height="26" viewBox="0 0 23 26" fill="none" xmlns="http://www.w3.org/2000/svg">
<g id="Group">
<path id="Vector" d="M17.6559 6.91697H22.5996V0H15.6619V4.94366C15.6619 6.02379 16.555 6.91697 17.6559 6.91697Z" fill="#27E150"/>
<path id="Vector_2" d="M0 6.91697H4.94366C6.04456 6.91697 6.93775 6.02379 6.93775 4.92289V0H0V6.91697Z" fill="#27E150"/>
<path id="Vector_3" d="M15.6619 9.24642V11.9883C15.6619 12.5699 15.3503 13.11 14.831 13.3592C12.6292 14.5017 9.97041 14.5017 7.74784 13.3592C7.22855 13.0892 6.91698 12.5491 6.91698 11.9883V9.24642H0V25.1101H6.91698V20.4008C8.32945 20.837 9.82501 21.0655 11.2998 21.0655C12.7746 21.0655 14.2494 20.837 15.6826 20.4008V25.0893H22.5996V9.22565H15.6619V9.24642Z" fill="#27E150"/>
</g>
</svg>
