<svg
    xmlns="http://www.w3.org/2000/svg"
    viewBox="0 0 24 24"
    id="vector">
    <path
        id="path"
        d="M 12 0 C 18.627 0 24 5.373 24 12 C 24 18.627 18.627 24 12 24 C 5.373 24 0 18.627 0 12 C 0 5.373 5.373 0 12 0 Z"
        fill="#ffdf00"/>
    <path
        id="path_1"
        d="M 12 0.273 C 18.477 0.273 23.727 5.523 23.727 12 C 23.727 18.477 18.477 23.727 12 23.727 C 5.523 23.727 0.273 18.477 0.273 12 C 0.273 5.523 5.523 0.273 12 0.273 Z"
        fill="none"
        stroke-width="0.545"/>
    <path
        id="path_2"
        d="M 14.675 7.636 C 13.621 7.636 12.629 8.12 12 8.941 C 11.14 7.831 9.645 7.378 8.287 7.814 C 6.928 8.25 6.008 9.479 6 10.866 C 6 13.787 10.023 17.455 12 17.455 C 13.977 17.455 18 13.781 18 10.866 C 17.997 9.086 16.511 7.643 14.675 7.636 Z"
        fill="#ffba00"/>
</svg>
