<svg width="25" height="25" viewBox="0 0 25 25" fill="none" xmlns="http://www.w3.org/2000/svg">
<path d="M22.1461 6.57241L21.7493 6.87662L22.1461 6.57241L21.7581 6.06635C19.3013 2.86169 14.3234 3.39484 12.6009 7.04715C12.5607 7.13247 12.4393 7.13247 12.3991 7.04715C10.6766 3.39485 5.69874 2.86169 3.24185 6.06635L2.85388 6.57241C0.849909 9.1863 1.14058 12.8909 3.52769 15.1602L10.8415 22.1132L10.8624 22.133C11.1396 22.3966 11.3793 22.6245 11.5958 22.786C11.8273 22.9586 12.0818 23.0944 12.3942 23.1165C12.4646 23.1215 12.5354 23.1215 12.6058 23.1165C12.9182 23.0944 13.1727 22.9586 13.4042 22.786C13.6207 22.6245 13.8604 22.3966 14.1377 22.133L14.1585 22.1132L21.4723 15.1602C23.8594 12.8909 24.1501 9.1863 22.1461 6.57241Z" fill="white" stroke="white"/>
</svg>
