<svg
    xmlns="http://www.w3.org/2000/svg"
    viewBox="0 0 48 48"
    id="vector">
    <path
        id="path"
        d="M 48 24 C 48 30.363 45.47 36.471 40.971 40.971 C 36.471 45.47 30.363 48 24 48 C 17.637 48 11.529 45.47 7.029 40.971 C 2.53 36.471 0 30.363 0 24 C 0 17.637 2.53 11.529 7.029 7.029 C 11.529 2.53 17.637 0 24 0 C 30.363 0 36.471 2.53 40.971 7.029 C 45.47 11.529 48 17.637 48 24 Z"
        fill="#15cc79"/>
    <path
        id="path_1"
        d="M 34.991 16.241 C 35.479 15.753 36.271 15.753 36.759 16.241 C 37.247 16.729 37.247 17.521 36.759 18.009 L 21.5 33.268 L 13.116 24.884 C 12.628 24.396 12.628 23.604 13.116 23.116 C 13.604 22.628 14.396 22.628 14.884 23.116 L 21.5 29.732 L 34.991 16.241 Z"
        fill="#ffffff"/>
</svg>
