<svg
    xmlns="http://www.w3.org/2000/svg"
    viewBox="0 0 24 24"
    id="vector">
    <path
        id="path"
        d="M 23 3 L 21 1 C 20.688 0.585 20.255 0.276 19.76 0.118 C 19.266 -0.039 18.734 -0.039 18.24 0.118 C 17.745 0.276 17.312 0.585 17 1 L 15.707 2.293 C 15.645 2.355 15.6 2.432 15.577 2.517 C 15.554 2.602 15.554 2.691 15.577 2.776 C 15.6 2.861 15.645 2.938 15.707 3 L 17.853 5.147 C 17.93 5.221 17.981 5.318 17.999 5.423 C 18.016 5.529 18 5.637 17.952 5.732 C 17.904 5.827 17.826 5.905 17.731 5.953 C 17.636 6.001 17.528 6.017 17.422 6 C 17.317 5.982 17.22 5.931 17.146 5.854 L 15 3.707 C 14.906 3.613 14.779 3.561 14.646 3.561 C 14.514 3.561 14.387 3.613 14.293 3.707 L 12.707 5.293 C 12.645 5.355 12.6 5.432 12.577 5.517 C 12.554 5.602 12.554 5.691 12.577 5.776 C 12.6 5.861 12.645 5.938 12.707 6 L 14.853 8.147 C 14.93 8.221 14.981 8.318 14.999 8.423 C 15.016 8.529 15 8.637 14.952 8.732 C 14.904 8.827 14.826 8.905 14.731 8.953 C 14.636 9.001 14.528 9.017 14.422 9 C 14.317 8.982 14.22 8.931 14.146 8.854 L 12 6.707 C 11.906 6.613 11.779 6.561 11.646 6.561 C 11.514 6.561 11.387 6.613 11.293 6.707 L 9.707 8.293 C 9.613 8.387 9.561 8.514 9.561 8.646 C 9.561 8.779 9.613 8.906 9.707 9 L 11.853 11.146 C 11.93 11.22 11.981 11.317 11.999 11.422 C 12.016 11.528 12 11.636 11.952 11.731 C 11.904 11.826 11.826 11.904 11.731 11.952 C 11.636 12 11.528 12.016 11.422 11.999 C 11.317 11.981 11.22 11.93 11.146 11.853 L 9 9.707 C 8.906 9.613 8.779 9.561 8.646 9.561 C 8.514 9.561 8.387 9.613 8.293 9.707 L 6.707 11.293 C 6.614 11.387 6.561 11.514 6.561 11.646 C 6.561 11.779 6.614 11.906 6.707 12 L 8.854 14.146 C 8.931 14.22 8.982 14.317 9 14.422 C 9.017 14.528 9.001 14.636 8.953 14.731 C 8.905 14.826 8.827 14.904 8.732 14.952 C 8.637 15 8.529 15.016 8.423 14.999 C 8.318 14.981 8.221 14.93 8.147 14.853 L 6 12.707 C 5.938 12.645 5.861 12.6 5.776 12.577 C 5.691 12.554 5.602 12.554 5.517 12.577 C 5.432 12.6 5.355 12.645 5.293 12.707 L 3.707 14.293 C 3.613 14.387 3.561 14.514 3.561 14.646 C 3.561 14.779 3.613 14.906 3.707 15 L 5.854 17.146 C 5.929 17.221 5.978 17.317 5.995 17.422 C 6.012 17.526 5.995 17.633 5.947 17.728 C 5.899 17.822 5.822 17.899 5.728 17.947 C 5.633 17.995 5.526 18.011 5.422 17.995 C 5.317 17.978 5.221 17.928 5.146 17.853 L 3 15.707 C 2.906 15.613 2.779 15.561 2.647 15.561 C 2.514 15.561 2.387 15.613 2.293 15.707 L 1 17 C 0.585 17.312 0.276 17.745 0.118 18.24 C -0.039 18.734 -0.039 19.266 0.118 19.76 C 0.276 20.255 0.585 20.688 1 21 L 3 23 C 3.238 23.305 3.541 23.553 3.887 23.726 C 4.233 23.899 4.613 23.993 5 24 C 5.387 23.993 5.767 23.899 6.113 23.726 C 6.459 23.553 6.762 23.305 7 23 L 23 7 C 23.305 6.762 23.553 6.459 23.726 6.113 C 23.899 5.767 23.993 5.387 24 5 C 23.993 4.613 23.899 4.233 23.726 3.887 C 23.553 3.541 23.305 3.238 23 3 Z"
        fill="#000000"/>
</svg>
