<svg
    xmlns="http://www.w3.org/2000/svg"
    viewBox="0 0 24 24"
    id="vector">
    <path
        id="path"
        d="M 23.92 22.606 L 17.92 8.606 C 17.817 8.364 17.623 8.173 17.38 8.073 C 17.136 7.973 16.864 7.973 16.62 8.073 C 16.377 8.173 16.183 8.364 16.08 8.606 L 10.08 22.606 C 9.996 22.8 9.976 23.017 10.022 23.223 C 10.069 23.43 10.18 23.616 10.339 23.756 C 10.499 23.895 10.698 23.981 10.909 24 C 11.12 24.019 11.331 23.97 11.513 23.861 C 11.695 23.753 11.837 23.589 11.92 23.394 L 13.801 19 L 20 19 C 20.064 18.999 20.127 18.993 20.19 18.98 L 22.08 23.394 C 22.185 23.637 22.382 23.829 22.628 23.927 C 22.874 24.025 23.149 24.021 23.393 23.917 C 23.636 23.813 23.829 23.616 23.927 23.37 C 24.026 23.125 24.023 22.85 23.92 22.606 Z M 14.66 17 L 17 11.539 L 19.34 17 L 14.66 17 Z"
        fill="#000000"/>
    <path
        id="path_1"
        d="M 9.707 16.293 L 6.914 13.5 L 9.707 10.707 C 11.489 8.925 12.002 7.869 11.993 6 L 12 5.007 L 12 5 C 12 4.735 11.895 4.48 11.707 4.293 C 11.52 4.105 11.265 4 11 4 L 7 4 L 7 1 C 7 0.735 6.895 0.48 6.707 0.293 C 6.52 0.105 6.265 0 6 0 C 5.735 0 5.48 0.105 5.293 0.293 C 5.105 0.48 5 0.735 5 1 L 5 4 L 1 4 C 0.735 4 0.48 4.105 0.293 4.293 C 0.105 4.48 0 4.735 0 5 C 0 5.265 0.105 5.52 0.293 5.707 C 0.48 5.895 0.735 6 1 6 L 9.993 6 L 9.993 6.004 C 10 7.176 9.861 7.725 8.293 9.293 L 5.5 12.086 L 1.707 8.293 C 1.559 8.139 1.365 8.037 1.154 8.002 C 0.944 7.966 0.727 7.999 0.537 8.095 C 0.346 8.191 0.191 8.346 0.095 8.537 C -0.001 8.727 -0.034 8.944 0.002 9.154 C 0.037 9.365 0.139 9.559 0.293 9.707 L 4.086 13.5 L 1.293 16.293 C 1.139 16.441 1.037 16.635 1.002 16.846 C 0.966 17.056 0.999 17.273 1.095 17.463 C 1.191 17.654 1.346 17.809 1.537 17.905 C 1.727 18.001 1.944 18.034 2.154 17.998 C 2.365 17.963 2.559 17.861 2.707 17.707 L 5.5 14.914 L 8.293 17.707 C 8.441 17.861 8.635 17.963 8.846 17.998 C 9.056 18.034 9.273 18.001 9.463 17.905 C 9.654 17.809 9.809 17.654 9.905 17.463 C 10.001 17.273 10.034 17.056 9.998 16.846 C 9.963 16.635 9.861 16.441 9.707 16.293 Z"
        fill="#000000"/>
</svg>
