<svg
    xmlns="http://www.w3.org/2000/svg"
    viewBox="0 0 48 48"
    id="vector">
    <path
        id="path"
        d="M 22 14 C 21.999 11.465 21.035 9.022 19.303 7.171 C 17.571 5.32 15.199 4.194 12.669 4.024 C 10.14 3.855 7.638 4.653 5.675 6.257 C 3.711 7.86 2.429 10.152 2.09 12.664 C 1.751 15.177 2.379 17.726 3.847 19.793 C 5.316 21.86 7.516 23.293 10 23.8 L 10 32 L 4 32 C 3.47 32 2.961 32.211 2.586 32.586 C 2.211 32.961 2 33.47 2 34 C 2 34.53 2.211 35.039 2.586 35.414 C 2.961 35.789 3.47 36 4 36 L 10 36 L 10 42 C 10 42.53 10.211 43.039 10.586 43.414 C 10.961 43.789 11.47 44 12 44 C 12.53 44 13.039 43.789 13.414 43.414 C 13.789 43.039 14 42.53 14 42 L 14 36 L 20 36 C 20.53 36 21.039 35.789 21.414 35.414 C 21.789 35.039 22 34.53 22 34 C 22 33.47 21.789 32.961 21.414 32.586 C 21.039 32.211 20.53 32 20 32 L 14 32 L 14 23.8 C 16.257 23.336 18.286 22.107 19.743 20.323 C 21.2 18.538 21.997 16.304 22 14 Z M 6 14 C 6 12.409 6.633 10.882 7.757 9.757 C 8.882 8.633 10.409 8 12 8 C 13.591 8 15.118 8.633 16.243 9.757 C 17.367 10.882 18 12.409 18 14 C 18 15.591 17.367 17.118 16.243 18.243 C 15.118 19.367 13.591 20 12 20 C 10.41 19.998 8.884 19.365 7.759 18.241 C 6.635 17.116 6.002 15.59 6 14 Z"
        fill="#000000"/>
    <path
        id="path_1"
        d="M 38 24.202 L 38 10.828 L 42.586 15.414 C 42.883 15.721 43.27 15.925 43.691 15.997 C 44.112 16.068 44.545 16.002 44.926 15.81 C 45.308 15.617 45.617 15.308 45.81 14.926 C 46.002 14.545 46.068 14.112 45.997 13.691 C 45.925 13.27 45.721 12.883 45.414 12.586 L 37.414 4.586 C 37.039 4.211 36.53 4 36 4 C 35.47 4 34.961 4.211 34.586 4.586 L 26.586 12.586 C 26.279 12.883 26.075 13.27 26.003 13.691 C 25.932 14.112 25.998 14.545 26.19 14.926 C 26.383 15.308 26.692 15.617 27.074 15.81 C 27.455 16.002 27.888 16.068 28.309 15.997 C 28.73 15.925 29.117 15.721 29.414 15.414 L 34 10.828 L 34 24.202 C 31.573 24.697 29.414 26.078 27.946 28.073 C 26.477 30.069 25.802 32.54 26.051 35.005 C 26.3 37.47 27.456 39.756 29.294 41.418 C 31.131 43.079 33.523 44 36 44 C 38.477 44 40.869 43.079 42.706 41.418 C 44.544 39.756 45.7 37.47 45.949 35.005 C 46.198 32.54 45.523 30.069 44.054 28.073 C 42.586 26.078 40.427 24.697 38 24.202 Z M 36 40 C 34.409 40 32.882 39.367 31.757 38.243 C 30.633 37.118 30 35.591 30 34 C 30 32.409 30.633 30.882 31.757 29.757 C 32.882 28.633 34.409 28 36 28 C 37.591 28 39.118 28.633 40.243 29.757 C 41.367 30.882 42 32.409 42 34 C 41.998 35.59 41.365 37.116 40.241 38.241 C 39.116 39.365 37.59 39.998 36 40 Z"
        fill="#000000"/>
</svg>
