<svg
    xmlns="http://www.w3.org/2000/svg"
    viewBox="0 0 512 512"
    id="vector">
    <path
        id="path"
        d="M 390.869 40.864 C 367.573 13.76 326.901 0 270.069 0 L 127.605 0 C 109.557 0 94.453 13.088 91.637 31.136 L 32.309 415.136 C 31.061 423.424 33.461 431.808 38.901 438.144 C 44.245 444.416 52.053 448 60.245 448 L 161.909 448 L 185.429 295.616 C 185.909 293.472 187.669 291.936 189.653 291.936 L 231.445 291.936 C 333.013 291.936 393.909 242.976 412.309 146.464 L 413.941 137.216 C 420.021 95.52 413.141 66.72 390.869 40.864 Z M 382.325 132.224 L 380.885 140.384 C 365.557 220.8 316.693 259.904 231.477 259.904 L 189.685 259.904 C 173.205 259.904 159.157 270.88 154.741 286.56 L 154.485 286.496 L 153.813 290.88 C 153.781 290.912 153.781 290.944 153.781 291.008 L 134.485 416 L 64.565 416 L 123.253 36.032 C 123.605 33.696 125.429 32 127.605 32 L 270.037 32 C 317.141 32 349.653 41.984 366.645 61.728 C 382.645 80.32 386.997 100.192 382.325 132.224 Z"
        fill="#000000"/>
    <path
        id="path_1"
        d="M 217.73 355.147 L 218.373 350.681 L 250.047 355.241 L 249.404 359.707 Z"
        fill="#000000"/>
    <path
        id="path_2"
        d="M 454.901 104.672 C 442.293 90.208 424.501 79.424 402.005 72.672 L 392.821 103.328 C 409.429 108.32 422.197 115.84 430.709 125.632 C 446.549 144.064 451.029 164.544 446.293 196.064 C 446.293 196.064 445.429 201.216 444.725 204.384 C 429.557 284.768 380.725 323.84 295.349 323.84 L 253.749 323.84 C 235.829 323.84 220.693 336.896 217.781 355.008 L 198.453 480 L 128.437 480 L 135.477 434.432 L 103.861 429.568 L 96.117 479.616 C 95.093 487.936 97.653 496.256 103.125 502.464 C 108.501 508.544 116.149 512 124.149 512 L 225.877 512 L 249.365 360 C 249.717 357.92 251.317 355.84 253.749 355.84 L 295.349 355.84 C 397.141 355.84 457.973 306.88 476.021 210.912 C 476.757 207.744 477.845 201.376 477.877 201.088 C 484.053 160.096 476.981 130.4 454.901 104.672 Z"
        fill="#000000"/>
</svg>
