<svg
    xmlns="http://www.w3.org/2000/svg"
    viewBox="0 0 24 24"
    id="vector">
    <path
        id="path"
        d="M 19 5 L 16 3 C 14.5 2 13.25 1 12 1 C 10.75 1 9.5 2 8 3 L 5 5 C 3.5 6 2 7 2 9 L 2 21 C 2 21.53 2.211 22.039 2.586 22.414 C 2.961 22.789 3.47 23 4 23 L 7 23 C 7.53 23 8.039 22.789 8.414 22.414 C 8.789 22.039 9 21.53 9 21 L 9 14 L 15 14 L 15 21 C 15 21.53 15.211 22.039 15.586 22.414 C 15.961 22.789 16.47 23 17 23 L 20 23 C 20.53 23 21.039 22.789 21.414 22.414 C 21.789 22.039 22 21.53 22 21 L 22 9 C 22 7 20.5 6 19 5 Z"
        fill="#000000"/>
</svg>
