<svg
    xmlns="http://www.w3.org/2000/svg"
    viewBox="0 0 24 24"
    id="vector">
    <path
        id="path"
        d="M 24 12 C 24 11.301 23.755 10.625 23.309 10.087 C 22.863 9.549 22.243 9.184 21.557 9.054 C 21.113 7.622 20.353 6.308 19.333 5.208 C 18.314 4.109 17.06 3.253 15.665 2.703 C 15.559 2.661 15.442 2.656 15.333 2.69 C 15.224 2.724 15.129 2.793 15.066 2.888 C 15.002 2.983 14.972 3.096 14.982 3.21 C 15.042 3.725 14.94 4.247 14.69 4.702 C 14.441 5.157 14.055 5.523 13.588 5.749 C 13.121 5.976 12.595 6.051 12.083 5.964 C 11.572 5.878 11.099 5.635 10.732 5.268 C 10.638 5.174 10.586 5.047 10.585 4.915 C 10.585 4.783 10.637 4.656 10.731 4.562 C 10.824 4.468 10.951 4.415 11.083 4.414 C 11.215 4.413 11.343 4.465 11.437 4.558 C 11.597 4.737 11.8 4.873 12.027 4.952 C 12.254 5.031 12.497 5.05 12.734 5.008 C 13.087 4.942 13.406 4.755 13.636 4.48 C 13.867 4.205 13.996 3.859 14 3.5 C 14.001 3.161 13.887 2.832 13.676 2.568 C 13.465 2.303 13.17 2.117 12.84 2.042 C 12.561 2.016 12.28 2.002 12 2 C 9.863 2 7.78 2.685 6.061 3.955 C 4.341 5.224 3.072 7.012 2.442 9.054 C 1.756 9.184 1.136 9.549 0.69 10.087 C 0.244 10.624 0 11.301 0 12 C 0 12.699 0.244 13.376 0.69 13.913 C 1.136 14.451 1.756 14.816 2.442 14.946 C 3.072 16.988 4.341 18.776 6.06 20.045 C 7.78 21.314 9.862 21.999 11.999 21.999 C 14.137 21.999 16.219 21.314 17.939 20.045 C 19.658 18.776 20.927 16.988 21.557 14.946 C 22.243 14.816 22.864 14.451 23.31 13.913 C 23.755 13.376 24 12.699 24 12 Z M 6.5 11 C 6.5 10.602 6.658 10.221 6.939 9.939 C 7.221 9.658 7.602 9.5 8 9.5 C 8.398 9.5 8.779 9.658 9.061 9.939 C 9.342 10.221 9.5 10.602 9.5 11 C 9.5 11.398 9.342 11.779 9.061 12.061 C 8.779 12.342 8.398 12.5 8 12.5 C 7.602 12.5 7.221 12.342 6.939 12.061 C 6.658 11.779 6.5 11.398 6.5 11 Z M 12 19 C 11.205 18.999 10.442 18.682 9.88 18.12 C 9.318 17.558 9.001 16.795 9 16 C 9 15.735 9.105 15.48 9.293 15.293 C 9.48 15.105 9.735 15 10 15 L 14 15 C 14.265 15 14.52 15.105 14.707 15.293 C 14.895 15.48 15 15.735 15 16 C 14.999 16.795 14.682 17.558 14.12 18.12 C 13.558 18.682 12.795 18.999 12 19 Z M 16 12.5 C 15.683 12.501 15.373 12.401 15.116 12.215 C 14.859 12.029 14.667 11.766 14.569 11.464 C 14.471 11.163 14.471 10.837 14.569 10.536 C 14.667 10.234 14.859 9.971 15.116 9.785 C 15.373 9.599 15.683 9.499 16 9.5 C 16.397 9.501 16.777 9.66 17.058 9.941 C 17.338 10.222 17.495 10.603 17.495 11 C 17.495 11.397 17.338 11.778 17.058 12.059 C 16.777 12.34 16.397 12.499 16 12.5 Z"
        fill="#000000"/>
</svg>
