<svg
    xmlns="http://www.w3.org/2000/svg"
    viewBox="0 0 48 48"
    id="vector">
    <path
        id="path"
        d="M 42.63 14 L 5.37 14 C 4.549 14.001 3.755 14.303 3.141 14.847 C 2.526 15.392 2.131 16.143 2.03 16.958 C 1.93 17.773 2.131 18.597 2.595 19.275 C 3.059 19.952 3.756 20.437 4.552 20.638 L 16.857 23.714 L 12.957 43.217 C 12.758 44.238 12.964 45.298 13.533 46.169 C 14.102 47.041 14.989 47.657 16.005 47.885 C 17.02 48.113 18.085 47.936 18.972 47.393 C 19.859 46.849 20.5 45.979 20.757 44.971 L 24 32 L 27.243 44.971 C 27.5 45.979 28.141 46.849 29.028 47.393 C 29.915 47.936 30.98 48.113 31.995 47.885 C 33.011 47.657 33.898 47.041 34.467 46.169 C 35.036 45.298 35.242 44.238 35.043 43.217 L 31.143 23.714 L 43.448 20.638 C 44.246 20.439 44.944 19.955 45.41 19.277 C 45.876 18.599 46.078 17.773 45.977 16.957 C 45.876 16.141 45.48 15.389 44.864 14.844 C 44.247 14.3 43.452 13.999 42.63 14 Z"
        fill="#000000"/>
    <path
        id="path_1"
        d="M 24 10 C 25.326 10 26.598 9.473 27.536 8.536 C 28.473 7.598 29 6.326 29 5 C 29 3.674 28.473 2.402 27.536 1.464 C 26.598 0.527 25.326 0 24 0 C 22.674 0 21.402 0.527 20.464 1.464 C 19.527 2.402 19 3.674 19 5 C 19 6.326 19.527 7.598 20.464 8.536 C 21.402 9.473 22.674 10 24 10 Z"
        fill="#000000"/>
</svg>
