<svg
    xmlns="http://www.w3.org/2000/svg"
    viewBox="0 0 48 48"
    id="vector">
    <path
        id="path"
        d="M 38 30 C 34 30 32 32 30 34 C 27.181 34.037 24.403 33.318 21.956 31.919 C 19.509 30.52 17.48 28.491 16.081 26.044 C 14.682 23.597 13.963 20.819 14 18 C 16 16 18 14 18 10 C 18 7.879 17.157 5.843 15.657 4.343 C 14.157 2.843 12.121 2 10 2 C 8.59 1.98 7.2 2.338 5.976 3.037 C 4.751 3.736 3.736 4.751 3.037 5.976 C 2.338 7.2 1.98 8.59 2 10 C 2 19.544 5.795 28.707 12.544 35.456 C 19.293 42.205 28.456 46 38 46 C 39.41 46.02 40.8 45.662 42.024 44.963 C 43.249 44.264 44.264 43.249 44.963 42.024 C 45.662 40.8 46.02 39.41 46 38 C 46 35.879 45.157 33.843 43.657 32.343 C 42.157 30.843 40.121 30 38 30 Z"
        fill="#ffffff"/>
</svg>
