<svg
    xmlns="http://www.w3.org/2000/svg"
    viewBox="0 0 24 24"
    id="vector">
    <path
        id="path"
        d="M 2.519 22.692 L 12.093 13.067 L 15.468 16.458 L 4.087 22.821 C 3.874 22.94 3.633 23.001 3.389 23 C 3.145 22.998 2.905 22.933 2.694 22.811 L 2.519 22.692 Z M 11.128 12.096 L 2 21.27 L 2 2.92 L 11.128 12.097 Z M 16.831 8.304 L 21.291 10.796 C 21.506 10.916 21.684 11.09 21.809 11.302 C 21.934 11.513 22 11.754 22 12 C 21.999 12.246 21.933 12.487 21.809 12.698 C 21.684 12.91 21.505 13.085 21.29 13.204 L 16.709 15.765 L 13.059 12.095 L 16.831 8.304 Z M 2.418 1.398 L 2.694 1.188 C 2.906 1.066 3.145 1.002 3.389 1 C 3.634 0.999 3.874 1.061 4.087 1.18 L 15.59 7.61 L 12.093 11.126 L 2.418 1.399 Z"
        fill="#000000"
        fill-rule="evenodd"/>
</svg>
