<svg
    xmlns="http://www.w3.org/2000/svg"
    viewBox="0 0 48 48"
    id="vector">
    <path
        id="path"
        d="M 31.414 34.586 L 9.414 12.586 C 9.039 12.211 8.53 12 8 12 C 7.47 12 6.961 12.211 6.586 12.586 L 0.586 18.586 C 0.211 18.961 0 19.47 0 20 C 0 20.53 0.211 21.039 0.586 21.414 L 22.586 43.414 C 22.961 43.789 23.47 44 24 44 C 24.53 44 25.039 43.789 25.414 43.414 L 31.414 37.414 C 31.789 37.039 32 36.53 32 36 C 32 35.47 31.789 34.961 31.414 34.586 Z M 24 39.172 L 13.414 28.586 L 16.586 25.414 L 27.17 36 L 24 39.172 Z"
        fill="#000000"/>
    <path
        id="path_1"
        d="M 32.586 40.586 L 28.586 44.586 C 28.279 44.883 28.075 45.27 28.003 45.691 C 27.932 46.112 27.998 46.545 28.19 46.926 C 28.383 47.308 28.692 47.617 29.074 47.81 C 29.455 48.002 29.888 48.068 30.309 47.997 C 30.73 47.925 31.117 47.721 31.414 47.414 L 35.414 43.414 C 35.778 43.037 35.98 42.531 35.975 42.007 C 35.971 41.483 35.76 40.981 35.39 40.61 C 35.019 40.24 34.517 40.029 33.993 40.025 C 33.469 40.02 32.963 40.222 32.586 40.586 Z"
        fill="#000000"/>
    <path
        id="path_2"
        d="M 40.907 24.047 C 40.415 23.57 38.383 21.57 37.875 21.079 C 34.593 17.901 32 15.391 32 11 C 32 6.342 36.853 3.81 36.895 3.79 C 37.274 3.602 37.584 3.298 37.78 2.923 C 37.976 2.547 38.047 2.119 37.984 1.701 C 37.922 1.282 37.727 0.894 37.43 0.593 C 37.133 0.291 36.747 0.092 36.33 0.023 C 35.912 -0.045 35.483 0.02 35.105 0.211 C 34.816 0.356 28 3.846 28 11 C 28 17.085 31.606 20.576 35.093 23.953 C 35.585 24.43 37.617 26.43 38.125 26.921 C 41.407 30.099 44 32.609 44 37 C 44 41.658 39.147 44.19 39.098 44.215 C 38.626 44.454 38.268 44.871 38.102 45.374 C 37.937 45.877 37.977 46.425 38.215 46.898 C 38.453 47.37 38.869 47.73 39.371 47.897 C 39.873 48.064 40.421 48.025 40.895 47.789 C 41.184 47.644 48 44.154 48 37 C 48 30.915 44.394 27.424 40.907 24.047 Z"
        fill="#000000"/>
</svg>
