<svg
    xmlns="http://www.w3.org/2000/svg"
    viewBox="0 0 24 24"
    id="vector">
    <path
        id="path"
        d="M 19 3 L 5 3 C 3.675 3.002 2.403 3.529 1.466 4.466 C 0.529 5.403 0.002 6.675 0 8 L 0 16 C 0.002 17.325 0.529 18.597 1.466 19.534 C 2.403 20.471 3.675 20.998 5 21 L 19 21 C 20.325 20.998 21.597 20.471 22.534 19.534 C 23.471 18.597 23.998 17.325 24 16 L 24 8 C 23.998 6.675 23.471 5.403 22.534 4.466 C 21.597 3.529 20.325 3.002 19 3 Z M 5 5 L 19 5 C 19.795 5.001 20.558 5.317 21.12 5.88 C 21.683 6.442 21.999 7.205 22 8 L 2 8 C 2.001 7.205 2.317 6.442 2.88 5.88 C 3.442 5.317 4.205 5.001 5 5 Z M 19 19 L 5 19 C 4.205 18.999 3.442 18.683 2.88 18.12 C 2.317 17.558 2.001 16.795 2 16 L 2 12 L 22 12 L 22 16 C 21.999 16.795 21.682 17.558 21.12 18.12 C 20.558 18.682 19.795 18.999 19 19 Z"
        fill="#000000"/>
    <path
        id="path_1"
        d="M 13 14 L 5 14 C 4.735 14 4.48 14.105 4.293 14.293 C 4.105 14.48 4 14.735 4 15 C 4 15.265 4.105 15.52 4.293 15.707 C 4.48 15.895 4.735 16 5 16 L 13 16 C 13.265 16 13.52 15.895 13.707 15.707 C 13.895 15.52 14 15.265 14 15 C 14 14.735 13.895 14.48 13.707 14.293 C 13.52 14.105 13.265 14 13 14 Z"
        fill="#000000"/>
    <path
        id="path_2"
        d="M 19 14 L 17 14 C 16.735 14 16.48 14.105 16.293 14.293 C 16.105 14.48 16 14.735 16 15 C 16 15.265 16.105 15.52 16.293 15.707 C 16.48 15.895 16.735 16 17 16 L 19 16 C 19.265 16 19.52 15.895 19.707 15.707 C 19.895 15.52 20 15.265 20 15 C 20 14.735 19.895 14.48 19.707 14.293 C 19.52 14.105 19.265 14 19 14 Z"
        fill="#000000"/>
</svg>
