<svg
    xmlns="http://www.w3.org/2000/svg"
    viewBox="0 0 48 48"
    id="vector">
    <path
        id="path"
        d="M 24 32 C 25.267 32 26.502 31.599 27.527 30.854 C 28.552 30.109 29.315 29.059 29.706 27.854 C 30.098 26.649 30.098 25.351 29.706 24.146 C 29.315 22.941 28.552 21.891 27.527 21.146 C 26.502 20.401 25.267 20 24 20 C 22.409 20 20.882 20.633 19.757 21.757 C 18.633 22.882 18 24.409 18 26 C 18 27.591 18.633 29.118 19.757 30.243 C 20.882 31.367 22.409 32 24 32 Z"
        fill="#000000"/>
    <path
        id="path_1"
        d="M 40 10 L 34 10 L 32.783 7.566 C 32.158 6.273 31.259 5.132 30.149 4.22 C 29.04 3.309 27.745 2.649 26.356 2.286 C 24.213 1.752 21.95 1.964 19.944 2.887 C 17.938 3.811 16.305 5.391 15.316 7.366 L 14 10 L 8 10 C 5.879 10 3.843 10.843 2.343 12.343 C 0.843 13.843 0 15.879 0 18 L 0 34 C 0 36.121 0.843 38.157 2.343 39.657 C 3.843 41.157 5.879 42 8 42 L 31.293 42 C 31.48 42 31.66 41.925 31.793 41.793 C 31.925 41.66 32 41.48 32 41.293 C 31.968 39.133 32.698 37.03 34.061 35.354 C 35.425 33.679 37.336 32.537 39.457 32.129 C 40.83 31.89 42.241 31.975 43.576 32.376 C 44.911 32.777 46.134 33.483 47.149 34.439 C 47.241 34.533 47.367 34.586 47.499 34.587 C 47.63 34.588 47.757 34.537 47.851 34.445 C 47.945 34.353 47.998 34.228 48 34.096 L 48 18 C 48 16.596 47.631 15.216 46.929 14 C 46.226 12.784 45.216 11.774 44 11.071 C 42.784 10.369 41.404 10 40 10 Z M 24 36 C 21.349 36 18.804 34.946 16.929 33.071 C 15.054 31.196 14 28.651 14 26 C 14 23.349 15.054 20.804 16.929 18.929 C 18.804 17.054 21.349 16 24 16 C 26.651 16 29.196 17.054 31.071 18.929 C 32.946 20.804 34 23.349 34 26 C 33.997 28.65 32.942 31.194 31.068 33.068 C 29.194 34.942 26.65 35.997 24 36 Z M 40 21 C 39.359 21.012 38.731 20.818 38.209 20.447 C 37.686 20.076 37.296 19.547 37.095 18.938 C 36.895 18.329 36.895 17.672 37.095 17.063 C 37.296 16.454 37.686 15.925 38.209 15.554 C 38.731 15.183 39.359 14.989 40 15.001 C 40.795 15.001 41.559 15.317 42.121 15.88 C 42.684 16.442 43 17.206 43 18.001 C 43 18.796 42.684 19.56 42.121 20.122 C 41.559 20.685 40.795 21.001 40 21.001 Z"
        fill="#000000"
        fill-rule="evenodd"/>
    <path
        id="path_2"
        d="M 37.111 35.18 C 38.34 34.344 39.803 33.921 41.288 33.972 C 42.773 34.023 44.204 34.546 45.372 35.464 C 46.541 36.382 47.387 37.648 47.788 39.079 C 48.189 40.51 48.124 42.032 47.603 43.423 C 47.082 44.815 46.131 46.005 44.889 46.82 C 43.346 47.833 41.463 48.196 39.654 47.828 C 37.845 47.461 36.253 46.392 35.227 44.857 C 34.202 43.323 33.824 41.443 34.177 39.631 C 34.529 37.819 35.585 36.218 37.111 35.18 Z M 42 42 L 45 42 C 45.265 42 45.52 41.895 45.707 41.707 C 45.895 41.52 46 41.265 46 41 C 46 40.735 45.895 40.48 45.707 40.293 C 45.52 40.105 45.265 40 45 40 L 42 40 L 42 37 C 42 36.735 41.895 36.48 41.707 36.293 C 41.52 36.105 41.265 36 41 36 C 40.735 36 40.48 36.105 40.293 36.293 C 40.105 36.48 40 36.735 40 37 L 40 40 L 37 40 C 36.735 40 36.48 40.105 36.293 40.293 C 36.105 40.48 36 40.735 36 41 C 36 41.265 36.105 41.52 36.293 41.707 C 36.48 41.895 36.735 42 37 42 L 40 42 L 40 45 C 40 45.265 40.105 45.52 40.293 45.707 C 40.48 45.895 40.735 46 41 46 C 41.265 46 41.52 45.895 41.707 45.707 C 41.895 45.52 42 45.265 42 45 L 42 42 Z"
        fill="#000000"
        fill-rule="evenodd"/>
</svg>
