<svg
    xmlns="http://www.w3.org/2000/svg"
    viewBox="0 0 48 48"
    id="vector">
    <path
        id="path"
        d="M 24 34 C 25.269 34.004 26.508 33.605 27.536 32.861 C 28.565 32.117 29.331 31.065 29.724 29.858 C 30.117 28.651 30.117 27.349 29.724 26.142 C 29.331 24.935 28.565 23.883 27.536 23.139 C 26.508 22.395 25.269 21.996 24 22 C 22.413 22.005 20.89 22.64 19.77 23.764 C 18.649 24.888 18.019 26.413 18.019 28 C 18.019 29.587 18.649 31.112 19.77 32.236 C 20.89 33.36 22.413 33.995 24 34 Z"
        fill="#000000"/>
    <path
        id="path_1"
        d="M 40 12 L 34 12 L 32.683 9.367 C 31.603 7.207 29.754 5.526 27.502 4.654 C 25.249 3.783 22.751 3.783 20.498 4.654 C 18.246 5.526 16.397 7.207 15.317 9.367 L 14 12 L 8 12 C 5.879 12 3.843 12.843 2.343 14.343 C 0.843 15.843 0 17.879 0 20 L 0 36 C 0 38.121 0.843 40.157 2.343 41.657 C 3.843 43.157 5.879 44 8 44 L 40 44 C 42.121 44 44.157 43.157 45.657 41.657 C 47.157 40.157 48 38.121 48 36 L 48 20 C 48 17.879 47.157 15.843 45.657 14.343 C 44.157 12.843 42.121 12 40 12 Z M 24 38 C 21.349 38 18.804 36.946 16.929 35.071 C 15.054 33.196 14 30.651 14 28 C 14 25.349 15.054 22.804 16.929 20.929 C 18.804 19.054 21.349 18 24 18 C 26.651 18 29.196 19.054 31.071 20.929 C 32.946 22.804 34 25.349 34 28 C 33.997 30.65 32.942 33.194 31.068 35.068 C 29.194 36.942 26.65 37.997 24 38 Z M 40 23 C 39.359 23.012 38.731 22.818 38.209 22.447 C 37.686 22.076 37.296 21.547 37.095 20.938 C 36.895 20.329 36.895 19.672 37.095 19.063 C 37.296 18.454 37.686 17.925 38.209 17.554 C 38.731 17.183 39.359 16.989 40 17.001 C 40.786 17.015 41.535 17.338 42.086 17.899 C 42.636 18.459 42.945 19.215 42.945 20 C 42.945 20.786 42.636 21.542 42.086 22.102 C 41.535 22.663 40.786 22.986 40 23 Z"
        fill="#000000"/>
</svg>
