<svg
    xmlns="http://www.w3.org/2000/svg"
    viewBox="0 0 24 24"
    id="vector">
    <path
        id="path"
        d="M 12 1 C 9.084 1 6.284 2.16 4.222 4.222 C 2.16 6.284 1 9.084 1 12 C 1 14.916 2.16 17.716 4.222 19.778 C 6.284 21.84 9.084 23 12 23 C 14.916 23 17.716 21.84 19.778 19.778 C 21.84 17.716 23 14.916 23 12 C 23 9.084 21.84 6.284 19.778 4.222 C 17.716 2.16 14.916 1 12 1 Z M 16 7.5 C 16.398 7.5 16.779 7.658 17.061 7.939 C 17.342 8.221 17.5 8.602 17.5 9 C 17.5 9.398 17.342 9.779 17.061 10.061 C 16.779 10.342 16.398 10.5 16 10.5 C 15.602 10.5 15.221 10.342 14.939 10.061 C 14.658 9.779 14.5 9.398 14.5 9 C 14.5 8.602 14.658 8.221 14.939 7.939 C 15.221 7.658 15.602 7.5 16 7.5 Z M 8 7.5 C 8.398 7.5 8.779 7.658 9.061 7.939 C 9.342 8.221 9.5 8.602 9.5 9 C 9.5 9.398 9.342 9.779 9.061 10.061 C 8.779 10.342 8.398 10.5 8 10.5 C 7.602 10.5 7.221 10.342 6.939 10.061 C 6.658 9.779 6.5 9.398 6.5 9 C 6.5 8.602 6.658 8.221 6.939 7.939 C 7.221 7.658 7.602 7.5 8 7.5 Z M 18.479 13.644 C 18.047 15.031 17.187 16.248 16.025 17.119 C 14.862 17.991 13.453 18.474 12 18.5 C 10.547 18.474 9.138 17.991 7.976 17.119 C 6.813 16.248 5.954 15.031 5.521 13.644 C 5.483 13.517 5.497 13.38 5.56 13.264 C 5.623 13.147 5.73 13.061 5.856 13.023 C 5.983 12.984 6.12 12.998 6.237 13.061 C 6.353 13.123 6.441 13.229 6.479 13.356 C 6.857 14.533 7.592 15.564 8.58 16.306 C 9.569 17.048 10.764 17.466 12 17.5 C 13.236 17.466 14.431 17.048 15.42 16.306 C 16.408 15.564 17.143 14.533 17.521 13.356 C 17.553 13.251 17.618 13.158 17.708 13.094 C 17.797 13.029 17.905 12.996 18.015 12.999 C 18.125 13.002 18.231 13.041 18.317 13.11 C 18.394 13.173 18.45 13.257 18.479 13.352 C 18.508 13.447 18.508 13.549 18.479 13.644 Z"
        fill="#000000"/>
</svg>
