<svg width="65" height="65" viewBox="0 0 65 65" fill="none" xmlns="http://www.w3.org/2000/svg">
<path d="M41.627 51.8132L55.354 38.7633C61.2203 33.1864 61.9304 24.0777 57.006 17.6545C50.4976 9.1653 37.3039 10.5684 32.7405 20.2445C32.6446 20.4478 32.3554 20.4478 32.2595 20.2445C27.6961 10.5684 14.5024 9.1653 7.99399 17.6545C3.06959 24.0777 3.77966 33.1864 9.64596 38.7633L23.3777 51.8176L23.4003 51.8391C25.2442 53.592 26.6576 54.9357 27.8899 55.8762C29.1352 56.8265 30.2402 57.4012 31.477 57.5715C32.1558 57.665 32.8442 57.665 33.523 57.5715C34.7598 57.4012 35.8648 56.8265 37.1101 55.8762C38.3424 54.9357 39.7557 53.5921 41.5995 51.8393L41.6223 51.8176L41.6224 51.8177L41.627 51.8132Z" fill="#00E0AA" stroke="#00E0AA"/>
</svg>
