<svg width="51" height="51" viewBox="0 0 51 51" fill="none" xmlns="http://www.w3.org/2000/svg">
<rect x="1" y="1" width="49" height="49" rx="24.5" stroke="#00E0AA" stroke-width="2"/>
<path d="M23.7471 37.5845L23.7472 37.5845L23.7775 37.6133L23.7775 37.6134L23.8006 37.6353C24.107 37.9266 24.3718 38.1784 24.6116 38.3529C24.8691 38.5403 25.1531 38.6812 25.5 38.6812C25.8469 38.6812 26.1309 38.5403 26.3884 38.3529C26.6282 38.1784 26.893 37.9266 27.1994 37.6353L27.2225 37.6133L36.5767 28.7207C39.5008 25.9408 39.8569 21.4028 37.4021 18.2009L36.9195 17.5714C33.9189 13.6576 27.8395 14.3087 25.7359 18.7692C25.6418 18.9686 25.3582 18.9686 25.2642 18.7692C23.1605 14.3087 17.0811 13.6576 14.0806 17.5714L13.598 18.2009C11.1432 21.4028 11.4992 25.9408 14.4234 28.7207L23.7471 37.5845Z" fill="#00E0AA" stroke="#00E0AA"/>
</svg>
