<svg width="70" height="70" viewBox="0 0 70 70" fill="none" xmlns="http://www.w3.org/2000/svg">
<path d="M10.6242 43.9863L26.732 59.2994L26.8284 59.3911C28.377 60.8633 29.6801 62.1023 30.8522 62.9554C32.0952 63.8601 33.4127 64.5011 35 64.5011C36.5873 64.5011 37.9048 63.8601 39.1478 62.9554C40.3199 62.1023 41.623 60.8634 43.1716 59.3911L43.268 59.2994L59.3758 43.9863C66.9417 36.7936 67.863 25.0521 61.5114 16.7674C54.4624 7.57293 40.336 8.87199 35 18.9651C29.664 8.87198 15.5376 7.57293 8.48856 16.7674C2.13702 25.0521 3.05828 36.7936 10.6242 43.9863Z" fill="#00E0AA" stroke="#00E0AA" stroke-width="4"/>
</svg>
