<svg width="30" height="34" viewBox="0 0 30 34" fill="none" xmlns="http://www.w3.org/2000/svg">
<path d="M27.5522 13.3771C28.4434 13.3771 29.1667 14.0898 29.1667 14.9714C29.1667 22.1444 23.6676 28.0673 16.6154 28.8629V32.0723C16.6154 32.9524 15.8921 33.6667 15.0009 33.6667C14.108 33.6667 13.3863 32.9524 13.3863 32.0723V28.8629C6.33245 28.0673 0.833374 22.1444 0.833374 14.9714C0.833374 14.0898 1.55668 13.3771 2.4479 13.3771C3.33912 13.3771 4.06243 14.0898 4.06243 14.9714C4.06243 20.9263 8.96898 25.7715 15.0009 25.7715C21.0311 25.7715 25.9377 20.9263 25.9377 14.9714C25.9377 14.0898 26.661 13.3771 27.5522 13.3771ZM15.2913 0.333313C19.2969 0.333313 22.5454 3.53953 22.5454 7.49509V15.2005C22.5454 19.1545 19.2969 22.3623 15.2913 22.3623H14.7085C10.7028 22.3623 7.456 19.1545 7.456 15.2005V7.49509C7.456 3.53953 10.7028 0.333313 14.7085 0.333313H15.2913Z" fill="white"/>
</svg>
