<?xml version="1.0" encoding="UTF-8"?>
<svg width="63px" height="25px" viewBox="0 0 63 25" version="1.1" xmlns="http://www.w3.org/2000/svg" xmlns:xlink="http://www.w3.org/1999/xlink">
    <title>Group</title>
    <g id="icons" stroke="none" stroke-width="1" fill="none" fill-rule="evenodd">
        <g id="Group">
            <rect id="Rectangle" fill="#000000" fill-rule="nonzero" x="0" y="0" width="63" height="25" rx="12.5"></rect>
            <circle id="Oval" stroke="#FFFFFF" cx="51.5" cy="12.5" r="5.625"></circle>
            <line x1="51.5" y1="14.375" x2="51.5" y2="10.625" id="Path" stroke="#FFFFFF" stroke-linecap="square"></line>
            <line x1="53.375" y1="12.5" x2="49.625" y2="12.5" id="Path" stroke="#FFFFFF" stroke-linecap="square"></line>
            <path d="M19.392,5.25 C21.105,5.25 22.4993,6.63151 22.4993,8.32886 L22.5,10.3368 C22.5,10.484 22.4408,10.6267 22.3358,10.7307 C22.23,10.8355 22.0875,10.8942 21.9375,10.8942 C21.3217,10.8942 20.8207,11.3906 20.8207,12.0007 C20.8207,12.6109 21.3217,13.1073 21.9375,13.1073 C22.248,13.1073 22.5,13.357 22.5,13.6646 L22.5,15.6719 C22.5,17.3692 21.1065,18.75 19.3935,18.75 L10.6073,18.75 C8.89425,18.75 7.5,17.3692 7.5,15.6719 L7.5,13.6646 C7.5,13.357 7.752,13.1073 8.0625,13.1073 C8.679,13.1073 9.18,12.6109 9.18,12.0007 C9.18,11.4062 8.69925,10.9589 8.0625,10.9589 C7.91325,10.9589 7.77075,10.9001 7.665,10.7954 C7.55925,10.6906 7.5,10.5486 7.5,10.4015 L7.5015,8.32886 C7.5015,6.63151 8.895,5.25 10.608,5.25 L19.392,5.25 Z M15.0015,9.11511 C14.7885,9.11511 14.598,9.23252 14.5027,9.42128 L13.956,10.5189 L12.7365,10.695 C12.5257,10.7248 12.3533,10.8674 12.2865,11.0681 C12.2205,11.2687 12.2737,11.4857 12.4267,11.6329 L13.311,12.486 L13.1025,13.6921 C13.0665,13.9002 13.1512,14.1068 13.3238,14.2309 C13.4212,14.3 13.5345,14.3357 13.6493,14.3357 C13.737,14.3357 13.8255,14.3142 13.9065,14.2718 L15,13.7025 L16.0912,14.2703 C16.2802,14.3706 16.5045,14.355 16.6762,14.2302 C16.8495,14.1068 16.9342,13.9002 16.8983,13.6921 L16.689,12.486 L17.5732,11.6329 C17.727,11.4857 17.7802,11.2687 17.7135,11.0681 C17.6475,10.8674 17.475,10.7248 17.2665,10.6958 L16.0448,10.5189 L15.498,9.42202 C15.4042,9.23327 15.2137,9.11585 15.0015,9.11511 Z" id="Shape" fill="#FFFFFF" fill-rule="nonzero"></path>
            <path d="M27.6984,9.25 L27.6984,7.794 L30.6104,7.794 L30.6104,18 L29.0004,18 L29.0004,9.25 L27.6984,9.25 Z M32.8029,12.764 C32.8029,11.1493 33.0736,9.88933 33.6149,8.984 C34.1656,8.06933 35.1082,7.612 36.4429,7.612 C37.7776,7.612 38.7156,8.06933 39.2569,8.984 C39.8076,9.88933 40.0829,11.1493 40.0829,12.764 C40.0829,14.3973 39.8076,15.676 39.2569,16.6 C38.7156,17.5147 37.7776,17.972 36.4429,17.972 C35.1082,17.972 34.1656,17.5147 33.6149,16.6 C33.0736,15.676 32.8029,14.3973 32.8029,12.764 Z M38.5149,12.764 C38.5149,12.008 38.4636,11.3687 38.3609,10.846 C38.2676,10.3233 38.0716,9.89867 37.7729,9.572 C37.4742,9.236 37.0309,9.068 36.4429,9.068 C35.8549,9.068 35.4116,9.236 35.1129,9.572 C34.8142,9.89867 34.6136,10.3233 34.5109,10.846 C34.4176,11.3687 34.3709,12.008 34.3709,12.764 C34.3709,13.548 34.4176,14.206 34.5109,14.738 C34.6042,15.27 34.8002,15.6993 35.0989,16.026 C35.4069,16.3527 35.8549,16.516 36.4429,16.516 C37.0309,16.516 37.4742,16.3527 37.7729,16.026 C38.0809,15.6993 38.2816,15.27 38.3749,14.738 C38.4682,14.206 38.5149,13.548 38.5149,12.764 Z" id="Shape" fill="#FFFFFF" fill-rule="nonzero"></path>
        </g>
    </g>
</svg>