<svg width="30" height="30" viewBox="0 0 30 30" fill="none" xmlns="http://www.w3.org/2000/svg">
<g clip-path="url(#clip0_226:250)">
<path d="M15 18.9674C20.4233 18.9674 25 19.8487 25 23.2487C25 26.65 20.3933 27.5 15 27.5C9.57797 27.5 5 26.6187 5 23.2187C5 19.8174 9.60673 18.9674 15 18.9674ZM15 2.5C18.6739 2.5 21.6175 5.44253 21.6175 9.11382C21.6175 12.7851 18.6739 15.7289 15 15.7289C11.3274 15.7289 8.38252 12.7851 8.38252 9.11382C8.38252 5.44253 11.3274 2.5 15 2.5Z" fill="#879099"/>
<mask id="path-2-outside-1_226:250" maskUnits="userSpaceOnUse" x="14.9583" y="15.6072" width="15" height="15" fill="black">
<rect fill="white" x="14.9583" y="15.6072" width="15" height="15"/>
<path fill-rule="evenodd" clip-rule="evenodd" d="M26.0281 21.4719L26.875 20.625C27.5654 19.9346 27.5654 18.8154 26.875 18.125C26.1847 17.4346 25.0654 17.4346 24.375 18.125L23.5131 18.9869C24.1007 20.0296 24.9708 20.8929 26.0281 21.4719ZM22.0581 20.4419L18.3564 24.1436C17.9313 24.5687 17.7188 24.7812 17.5791 25.0423C17.4393 25.3034 17.3804 25.5981 17.2625 26.1876L17.0221 27.3896C16.9556 27.7222 16.9223 27.8885 17.0169 27.9831C17.1115 28.0777 17.2778 28.0444 17.6104 27.9779L17.6105 27.9779L18.8124 27.7375L18.8124 27.7375C19.4019 27.6196 19.6966 27.5607 19.9577 27.4209C20.2188 27.2812 20.4313 27.0687 20.8564 26.6436L24.5694 22.9306C23.5636 22.2863 22.7082 21.4366 22.0581 20.4419Z"/>
</mask>
<path fill-rule="evenodd" clip-rule="evenodd" d="M26.0281 21.4719L26.875 20.625C27.5654 19.9346 27.5654 18.8154 26.875 18.125C26.1847 17.4346 25.0654 17.4346 24.375 18.125L23.5131 18.9869C24.1007 20.0296 24.9708 20.8929 26.0281 21.4719ZM22.0581 20.4419L18.3564 24.1436C17.9313 24.5687 17.7188 24.7812 17.5791 25.0423C17.4393 25.3034 17.3804 25.5981 17.2625 26.1876L17.0221 27.3896C16.9556 27.7222 16.9223 27.8885 17.0169 27.9831C17.1115 28.0777 17.2778 28.0444 17.6104 27.9779L17.6105 27.9779L18.8124 27.7375L18.8124 27.7375C19.4019 27.6196 19.6966 27.5607 19.9577 27.4209C20.2188 27.2812 20.4313 27.0687 20.8564 26.6436L24.5694 22.9306C23.5636 22.2863 22.7082 21.4366 22.0581 20.4419Z" fill="#879099"/>
<path d="M26.0281 21.4719L25.0676 23.2261L26.3824 23.9461L27.4424 22.8861L26.0281 21.4719ZM24.375 18.125L25.7892 19.5392V19.5392L24.375 18.125ZM23.5131 18.9869L22.0989 17.5727L21.0254 18.6462L21.7707 19.9688L23.5131 18.9869ZM22.0581 20.4419L23.7323 19.3478L22.3851 17.2865L20.6439 19.0277L22.0581 20.4419ZM18.3564 24.1436L16.9422 22.7294L18.3564 24.1436ZM17.5791 25.0423L15.8157 24.0986L15.8157 24.0986L17.5791 25.0423ZM17.2625 26.1876L19.2237 26.5798L19.2237 26.5798L17.2625 26.1876ZM17.0221 27.3896L18.9833 27.7818L17.0221 27.3896ZM17.0169 27.9831L15.6027 29.3973L15.6027 29.3973L17.0169 27.9831ZM17.6104 27.9779L17.2748 26.0063L17.2464 26.0111L17.2182 26.0168L17.6104 27.9779ZM17.6105 27.9779L17.9461 29.9496L17.9744 29.9447L18.0027 29.9391L17.6105 27.9779ZM18.8124 27.7375L19.2047 29.6987L19.3684 29.6659L19.5244 29.6065L18.8124 27.7375ZM18.8124 27.7375L18.4202 25.7764L18.2565 25.8091L18.1005 25.8685L18.8124 27.7375ZM19.9577 27.4209L19.014 25.6576L19.014 25.6576L19.9577 27.4209ZM20.8564 26.6436L19.4422 25.2294L19.4422 25.2294L20.8564 26.6436ZM24.5694 22.9306L25.9836 24.3449L27.7411 22.5873L25.6482 21.2466L24.5694 22.9306ZM27.4424 22.8861L28.2892 22.0392L25.4608 19.2108L24.6139 20.0577L27.4424 22.8861ZM28.2892 22.0392C29.7606 20.5678 29.7606 18.1822 28.2892 16.7108L25.4608 19.5392C25.3701 19.4485 25.3701 19.3015 25.4608 19.2108L28.2892 22.0392ZM28.2892 16.7108C26.8178 15.2394 24.4322 15.2394 22.9608 16.7108L25.7892 19.5392C25.6985 19.6299 25.5515 19.6299 25.4608 19.5392L28.2892 16.7108ZM22.9608 16.7108L22.0989 17.5727L24.9273 20.4012L25.7892 19.5392L22.9608 16.7108ZM21.7707 19.9688C22.5408 21.3355 23.6812 22.4669 25.0676 23.2261L26.9887 19.7177C26.2605 19.3189 25.6605 18.7238 25.2555 18.0051L21.7707 19.9688ZM20.6439 19.0277L16.9422 22.7294L19.7706 25.5578L23.4723 21.8561L20.6439 19.0277ZM16.9422 22.7294C16.5996 23.072 16.1273 23.5164 15.8157 24.0986L19.3424 25.986C19.3134 26.0403 19.294 26.0523 19.3541 25.9848C19.4307 25.8988 19.5426 25.7859 19.7706 25.5578L16.9422 22.7294ZM15.8157 24.0986C15.5041 24.6808 15.3964 25.3202 15.3013 25.7954L19.2237 26.5798C19.2869 26.2636 19.3188 26.1079 19.3479 25.9965C19.3707 25.909 19.3715 25.9317 19.3424 25.986L15.8157 24.0986ZM15.3013 25.7954L15.0609 26.9973L18.9833 27.7818L19.2237 26.5798L15.3013 25.7954ZM15.0609 26.9973C15.0406 27.099 14.9757 27.3968 14.9616 27.6745C14.9456 27.9917 14.9644 28.7589 15.6027 29.3973L18.4311 26.5689C18.6775 26.8152 18.8268 27.1054 18.9002 27.379C18.965 27.6208 18.9599 27.8094 18.9565 27.8766C18.953 27.9472 18.9449 27.9834 18.9509 27.9488C18.9564 27.9169 18.9651 27.8729 18.9833 27.7818L15.0609 26.9973ZM15.6027 29.3973C16.2411 30.0356 17.0083 30.0544 17.3255 30.0384C17.6032 30.0243 17.901 29.9594 18.0027 29.9391L17.2182 26.0168C17.1272 26.035 17.0831 26.0436 17.0513 26.0491C17.0166 26.0551 17.0528 26.047 17.1234 26.0435C17.1907 26.0401 17.3792 26.035 17.6211 26.0999C17.8947 26.1733 18.1848 26.3226 18.4311 26.5689L15.6027 29.3973ZM17.946 29.9496L17.9461 29.9496L17.2749 26.0063L17.2748 26.0063L17.946 29.9496ZM18.0027 29.9391L19.2047 29.6987L18.4202 25.7764L17.2182 26.0168L18.0027 29.9391ZM19.5244 29.6065L19.5244 29.6065L18.1005 25.8685L18.1004 25.8685L19.5244 29.6065ZM19.2047 29.6987C19.6798 29.6037 20.3192 29.4959 20.9014 29.1843L19.014 25.6576C19.0683 25.6285 19.091 25.6293 19.0035 25.6521C18.8921 25.6812 18.7365 25.7131 18.4202 25.7764L19.2047 29.6987ZM20.9014 29.1843C21.4836 28.8727 21.928 28.4004 22.2706 28.0578L19.4422 25.2294C19.2141 25.4575 19.1012 25.5693 19.0153 25.6459C18.9477 25.706 18.9597 25.6866 19.014 25.6576L20.9014 29.1843ZM22.2706 28.0578L25.9836 24.3449L23.1552 21.5164L19.4422 25.2294L22.2706 28.0578ZM25.6482 21.2466C24.8811 20.7552 24.2284 20.1068 23.7323 19.3478L20.384 21.536C21.1881 22.7665 22.2461 23.8175 23.4905 24.6147L25.6482 21.2466Z" fill="white" mask="url(#path-2-outside-1_226:250)"/>
</g>
<defs>
<clipPath id="clip0_226:250">
<rect width="30" height="30" fill="white"/>
</clipPath>
</defs>
</svg>
