<?xml version="1.0" encoding="UTF-8"?>
<svg width="25px" height="25px" viewBox="0 0 25 25" version="1.1" xmlns="http://www.w3.org/2000/svg" xmlns:xlink="http://www.w3.org/1999/xlink">
    <title>Group</title>
    <g id="icons" stroke="none" stroke-width="1" fill="none" fill-rule="evenodd">
        <g id="Group" transform="translate(0.000000, 0.000000)" fill="#879099">
            <path d="M14.8238,0.31529 C15.0563,0.56271 15.0942,0.9424 15.1702,1.7018 C15.3147,3.14737 15.387,3.87015 15.8408,4.12487 C15.9099,4.16369 15.9835,4.19414 16.0598,4.21559 C16.5608,4.35634 17.123,3.89636 18.2473,2.97641 C18.838,2.49315 19.1333,2.25151 19.4726,2.24092 C19.5267,2.23923 19.5807,2.24193 19.6343,2.24899 C19.9709,2.29329 20.2407,2.56311 20.7804,3.10275 L21.8972,4.21958 C22.4369,4.75924 22.7067,5.02906 22.751,5.36563 C22.758,5.41922 22.7607,5.47329 22.759,5.52731 C22.7485,5.86662 22.5068,6.16196 22.0235,6.75263 C21.1036,7.877 20.6436,8.4392 20.7843,8.9402 C20.8058,9.0165 20.8362,9.0901 20.8751,9.1592 C21.1298,9.613 21.8526,9.6853 23.2982,9.8298 C24.0576,9.9058 24.4373,9.9437 24.6847,10.1762 C24.7241,10.2132 24.7604,10.2533 24.7933,10.2962 C25,10.5655 25,10.9471 25,11.7103 L25,13.2899 C25,14.0529 25,14.4344 24.7934,14.7037 C24.7605,14.7467 24.7241,14.7869 24.6846,14.8239 C24.4372,15.0563 24.0576,15.0942 23.2983,15.1702 C21.853,15.3147 21.1304,15.387 20.8757,15.8405 C20.8367,15.9098 20.8062,15.9835 20.7848,16.06 C20.6442,16.5608 21.104,17.1229 22.0237,18.247 C22.5069,18.8375 22.7485,19.1328 22.7591,19.472 C22.7608,19.5261 22.7581,19.5803 22.751,19.634 C22.7067,19.9705 22.4369,20.2402 21.8974,20.7797 L20.7804,21.8967 C20.2408,22.4363 19.971,22.7062 19.6344,22.7505 C19.5808,22.7575 19.5267,22.7602 19.4727,22.7585 C19.1334,22.7479 18.8381,22.5063 18.2474,22.023 C17.123,21.1031 16.5608,20.6431 16.0599,20.7839 C15.9835,20.8053 15.91,20.8358 15.8408,20.8746 C15.3871,21.1293 15.3148,21.8522 15.1702,23.2979 C15.0942,24.0576 15.0563,24.4374 14.8237,24.6848 C14.7868,24.7241 14.7467,24.7604 14.7039,24.7932 C14.4346,25 14.0529,25 13.2895,25 L11.7103,25 C10.9471,25 10.5655,25 10.2962,24.7933 C10.2533,24.7604 10.2132,24.7241 10.1762,24.6847 C9.9437,24.4373 9.9058,24.0576 9.8298,23.2982 C9.6853,21.8526 9.613,21.1298 9.1592,20.875 C9.0901,20.8362 9.0166,20.8058 8.9402,20.7844 C8.4392,20.6436 7.877,21.1036 6.7526,22.0236 C6.1619,22.5069 5.86656,22.7485 5.52724,22.7591 C5.47323,22.7608 5.41917,22.7581 5.3656,22.751 C5.02902,22.7067 4.75918,22.4369 4.21951,21.8972 L3.10271,20.7804 C2.56305,20.2408 2.29322,19.9709 2.24893,19.6344 C2.24188,19.5808 2.23918,19.5267 2.24087,19.4727 C2.25145,19.1334 2.49309,18.838 2.97638,18.2474 C3.89635,17.123 4.35633,16.5608 4.21558,16.0598 C4.19413,15.9834 4.16368,15.9099 4.12486,15.8408 C3.87015,15.387 3.14736,15.3147 1.70179,15.1702 C0.9424,15.0942 0.56271,15.0563 0.31529,14.8238 C0.2759,14.7868 0.23957,14.7467 0.20667,14.7038 C0,14.4345 0,14.0529 0,13.2897 L0,11.7104 C0,10.9471 0,10.5654 0.20674,10.2961 C0.2396,10.2533 0.27587,10.2132 0.3152,10.1763 C0.56264,9.9437 0.9424,9.9058 1.70193,9.8298 L1.70194,9.8298 C3.14781,9.6852 3.87074,9.6129 4.12543,9.159 C4.16417,9.09 4.19457,9.0166 4.216,8.9403 C4.35688,8.4393 3.89679,7.8769 2.9766,6.75228 L2.9766,6.75227 C2.49317,6.16141 2.25145,5.86598 2.24092,5.52656 C2.23925,5.47266 2.24194,5.41872 2.24896,5.36525 C2.29321,5.02857 2.56312,4.75867 3.10292,4.21886 L3.10292,4.21886 L4.21957,3.10221 C4.75924,2.56254 5.02907,2.29271 5.36566,2.24842 C5.41923,2.24137 5.47329,2.23867 5.52729,2.24035 C5.86662,2.25094 6.16199,2.49261 6.75275,2.97595 C7.877,3.89583 8.4392,4.35577 8.9401,4.21515 C9.0165,4.19368 9.0902,4.16318 9.1594,4.12429 C9.613,3.86954 9.6853,3.14691 9.8298,1.70163 C9.9058,0.9424 9.9437,0.56278 10.1761,0.31539 C10.2131,0.27593 10.2534,0.23954 10.2963,0.20659 C10.5656,0 10.9471,0 11.7101,0 L13.2897,0 C14.0529,0 14.4345,0 14.7038,0.20667 C14.7467,0.23957 14.7868,0.2759 14.8238,0.31529 Z M12.5,17.5 C15.2614,17.5 17.5,15.2614 17.5,12.5 C17.5,9.7386 15.2614,7.5 12.5,7.5 C9.7386,7.5 7.5,9.7386 7.5,12.5 C7.5,15.2614 9.7386,17.5 12.5,17.5 Z" id="Shape"></path>
        </g>
    </g>
</svg>