<svg
    xmlns="http://www.w3.org/2000/svg"
    viewBox="0 0 24 24"
    id="vector">
    <path
        id="path"
        d="M 12 21 C 14.386 21 16.677 20.051 18.364 18.364 C 20.051 16.677 21 14.386 21 12 C 21 9.614 20.051 7.323 18.364 5.636 C 16.677 3.949 14.386 3 12 3 C 9.614 3 7.323 3.949 5.636 5.636 C 3.949 7.323 3 9.614 3 12 C 3 14.386 3.949 16.677 5.636 18.364 C 7.323 20.051 9.614 21 12 21 Z M 12 23 C 18.075 23 23 18.075 23 12 C 23 5.925 18.075 1 12 1 C 5.925 1 1 5.925 1 12 C 1 18.075 5.925 23 12 23 Z"
        fill="#000000"
        fill-rule="evenodd"/>
    <path
        id="path_1"
        d="M 10.48 16.052 C 9.753 15.81 9.151 15.288 8.808 14.602 C 8.465 13.917 8.408 13.122 8.65 12.395 L 10.154 7.877 C 10.173 7.821 10.171 7.761 10.15 7.706 C 10.128 7.651 10.088 7.605 10.037 7.577 C 9.985 7.549 9.925 7.54 9.867 7.552 C 9.814 7.565 9.762 7.58 9.71 7.597 L 7.29 8.403 C 6.976 8.508 6.694 8.693 6.475 8.941 C 6.255 9.189 6.104 9.49 6.038 9.815 C 5.972 10.139 5.992 10.476 6.097 10.79 L 7.907 16.22 C 7.969 16.405 8.059 16.578 8.176 16.734 C 8.352 16.97 8.581 17.162 8.844 17.295 C 9.107 17.428 9.397 17.499 9.692 17.501 L 9.696 17.501 C 9.898 17.501 10.099 17.469 10.291 17.405 L 11.707 16.935 C 11.757 16.919 11.801 16.887 11.831 16.844 C 11.862 16.801 11.879 16.75 11.879 16.698 C 11.879 16.645 11.862 16.594 11.831 16.551 C 11.801 16.508 11.757 16.476 11.707 16.46 L 10.479 16.052 Z"
        fill="#000000"/>
    <path
        id="path_2"
        d="M 16.745 7.184 C 16.583 7.063 16.402 6.968 16.21 6.904 L 13.79 6.097 C 13.316 5.939 12.797 5.976 12.35 6.2 C 11.903 6.423 11.562 6.816 11.404 7.29 L 9.598 12.711 C 9.534 12.902 9.501 13.102 9.501 13.304 L 9.501 13.309 C 9.501 13.601 9.568 13.89 9.698 14.151 C 9.829 14.413 10.018 14.641 10.251 14.817 L 10.252 14.818 C 10.416 14.942 10.6 15.038 10.795 15.103 L 13.209 15.905 C 13.401 15.969 13.602 16.001 13.804 16.001 L 13.808 16.001 C 14.1 16.001 14.389 15.932 14.65 15.802 C 14.912 15.671 15.139 15.481 15.315 15.247 L 15.316 15.245 C 15.437 15.083 15.532 14.902 15.596 14.71 L 17.403 9.29 C 17.528 8.914 17.532 8.509 17.414 8.131 C 17.296 7.753 17.062 7.422 16.745 7.184 Z"
        fill="#000000"/>
</svg>
