<svg width="25" height="26" viewBox="0 0 25 26" fill="none" xmlns="http://www.w3.org/2000/svg">
<path d="M12.5 0C19.3895 0 25 5.62327 25 12.5417C25 19.4456 19.3895 25.0689 12.5 25.0689C5.61052 25.0689 0 19.4456 0 12.5417C0 5.62327 5.61052 0 12.5 0ZM11.0763 7.55816C10.8108 7.55816 10.5574 7.61863 10.3161 7.73956C10.0145 7.90886 9.77317 8.17491 9.64044 8.48933C9.55598 8.707 9.42326 9.36003 9.42326 9.37212C9.29054 10.0856 9.21815 11.2465 9.21815 12.5284C9.21815 13.751 9.29054 14.8624 9.39913 15.588C9.4112 15.6 9.54392 16.4103 9.68871 16.6884C9.95415 17.1963 10.473 17.5107 11.028 17.5107H11.0763C11.4382 17.4987 12.1984 17.1842 12.1984 17.1721C13.4773 16.64 15.999 14.9833 17.0125 13.8828L17.0849 13.8103C17.2177 13.6772 17.3866 13.4717 17.4228 13.4233C17.6158 13.1693 17.7124 12.8549 17.7124 12.5417C17.7124 12.1898 17.6038 11.8633 17.3986 11.5972C17.3504 11.5489 17.1694 11.3433 17.0005 11.174C16.0111 10.1098 13.4291 8.3684 12.0777 7.8363C11.8726 7.75286 11.3538 7.57025 11.0763 7.55816Z" fill="white"/>
</svg>
