<svg
    xmlns="http://www.w3.org/2000/svg"
    viewBox="0 0 72 72"
    id="vector">
    <g
        id="group_3"
        transform="translate(0 7)">
        <g
            id="group"
            transform="translate(-11.63937 26.2311) rotate(-40 0 0)">
            <path
                id="path"
                d="M 26.232 37.87 L 28.152 17.978 C 28.254 16.916 29.147 16.105 30.215 16.105 C 31.282 16.105 32.175 16.916 32.278 17.978 L 34.198 37.87 C 34.402 39.994 32.847 41.882 30.723 42.087 C 30.6 42.099 30.476 42.105 30.352 42.105 L 30.077 42.105 C 27.943 42.105 26.214 40.375 26.214 38.242 C 26.214 38.118 26.22 37.994 26.232 37.87 Z"
                fill="#ff661b"/>
        </g>
        <g
            id="group_1"
            transform="translate(72 0) scale(-1 1)">
            <path
                id="path_1"
                d="M 64.799 56.802 C 63.804 58.126 61.923 58.394 60.598 57.399 C 59.274 56.404 59.006 54.523 60.001 53.198 C 63.861 48.059 66 41.94 66 35.597 C 66 19.259 52.577 6 36 6 C 19.423 6 6 19.259 6 35.597 C 6 41.936 8.141 48.059 11.999 53.199 C 12.994 54.524 12.726 56.405 11.401 57.399 C 10.076 58.394 8.195 58.126 7.201 56.801 C 2.579 50.645 0 43.266 0 35.597 C 0 15.929 16.126 0 36 0 C 55.874 0 72 15.929 72 35.597 C 72 43.271 69.422 50.646 64.799 56.802 Z"
                fill="#e0e0e0"/>
        </g>
        <g
            id="group_2"
            transform="translate(15.811 0) scale(-1 1)">
            <path
                id="path_2"
                d="M 8.61 56.802 C 7.615 58.126 5.735 58.394 4.41 57.399 C 3.085 56.404 2.818 54.523 3.813 53.198 C 7.673 48.059 9.811 41.94 9.811 35.597 C 9.811 27.582 6.57 20.079 0.905 14.552 C -0.281 13.395 -0.304 11.495 0.853 10.309 C 2.01 9.123 3.909 9.1 5.095 10.257 C 11.904 16.9 15.811 25.945 15.811 35.597 C 15.811 43.271 13.234 50.646 8.61 56.802 Z"
                fill="#ff661b"/>
        </g>
    </g>
</svg>
