<svg width="25" height="25" viewBox="0 0 25 25" fill="none" xmlns="http://www.w3.org/2000/svg">
<path fill-rule="evenodd" clip-rule="evenodd" d="M25 12.5C25 19.4036 19.4036 25 12.5 25C5.59644 25 0 19.4036 0 12.5C0 5.59644 5.59644 0 12.5 0C19.4036 0 25 5.59644 25 12.5ZM7 8C7 6.89543 7.89543 6 9 6C10.1046 6 11 6.89543 11 8V17C11 18.1046 10.1046 19 9 19C7.89543 19 7 18.1046 7 17V8ZM16 6C14.8954 6 14 6.89543 14 8V17C14 18.1046 14.8954 19 16 19C17.1046 19 18 18.1046 18 17V8C18 6.89543 17.1046 6 16 6Z" fill="white"/>
</svg>
