<svg
    xmlns="http://www.w3.org/2000/svg"
    viewBox="0 0 32 32"
    id="vector">
    <path
        id="path"
        d="M 32 16 C 32 20.242 30.313 24.314 27.314 27.314 C 24.314 30.313 20.242 32 16 32 C 11.758 32 7.686 30.313 4.686 27.314 C 1.687 24.314 0 20.242 0 16 C 0 11.758 1.687 7.686 4.686 4.686 C 7.686 1.687 11.758 0 16 0 C 20.242 0 24.314 1.687 27.314 4.686 C 30.313 7.686 32 11.758 32 16 Z"
        fill="#ffffff"/>
    <path
        id="path_1"
        d="M 17 15 L 23 15 L 23 17 L 17 17 L 17 23 L 15 23 L 15 17 L 9 17 L 9 15 L 15 15 L 15 9 L 17 9 L 17 15 Z"
        fill="#783bf9"/>
</svg>
