<?xml version="1.0" encoding="UTF-8"?>
<svg width="90px" height="90px" viewBox="0 0 90 90" version="1.1" xmlns="http://www.w3.org/2000/svg" xmlns:xlink="http://www.w3.org/1999/xlink">
    <title>Group</title>
    <g id="icons" stroke="none" stroke-width="1" fill="none" fill-rule="evenodd">
        <g id="Group" fill="#FAFF00" fill-rule="nonzero">
            <path d="M51.1236692,0.926131187 C64.4375692,-2.64132881 75.8848692,4.30388119 79.6095692,18.2043412 L88.2053692,50.2846412 C91.9300692,64.1851412 85.4889692,75.9235412 72.1710692,79.4920412 L38.1264692,88.6142412 C24.8125692,92.1817412 13.3651692,85.2365412 9.64057923,71.3359412 L1.04470923,39.2557412 C-2.67992077,25.3552412 3.76114923,13.6168412 17.0750692,10.0494412 L51.1236692,0.926131187 Z M66.5602692,41.2085412 C61.6455692,39.7099412 59.3830692,44.2700412 58.8221692,45.6847412 C58.2820692,47.0503412 57.8920692,48.5018412 57.4624692,49.9638412 C56.4210692,53.5668412 55.2341692,57.7171412 52.0782692,60.7917412 C47.4829692,65.2252412 42.6490692,63.5702412 39.1656692,62.3572412 C37.8597692,61.9076412 36.5962692,61.4901412 35.3997692,61.3067412 C32.4558692,60.8746412 30.4294692,62.8080412 28.1050692,68.2276412 C26.8831692,71.0621412 25.6716692,73.8720412 24.4342692,76.6802412 C23.6946692,78.3600412 24.5306692,80.4215412 26.2754692,80.9446412 C29.0595692,81.7758412 32.1866692,81.7852412 35.4810692,80.9025412 L68.5872692,72.0317412 C70.4556692,71.5311412 72.2595692,70.7740412 73.8886692,69.7118412 C77.5579692,67.3208412 79.9436692,63.4576412 80.5461692,59.0381412 C81.0573692,55.3209412 80.6544692,51.0839412 78.4352692,48.0635412 C77.6970692,47.0621412 76.7621692,46.1959412 75.5962692,45.5264412 C72.5407692,43.7772412 69.6856692,42.1438412 66.5602692,41.2085412 Z M24.5562692,24.8859412 C19.1406692,26.3370412 15.9208692,31.9225412 17.3716692,37.3367412 C18.8223692,42.7509412 24.4034692,45.9782412 29.8191692,44.5271412 C35.2308692,43.0770412 38.4545692,37.4905412 37.0038692,32.0763412 C35.5531692,26.6621412 29.9680692,23.4358412 24.5562692,24.8859412 Z" id="Shape"></path>
        </g>
    </g>
</svg>