<?xml version="1.0" encoding="UTF-8"?>
<svg width="95px" height="88px" viewBox="0 0 95 88" version="1.1" xmlns="http://www.w3.org/2000/svg" xmlns:xlink="http://www.w3.org/1999/xlink">
    <title>Group</title>
    <g id="icons" stroke="none" stroke-width="1" fill="none" fill-rule="evenodd">
        <g id="Group" fill="#FAFF00" fill-rule="nonzero">
            <path d="M45.0110908,0.378446056 C49.2056908,-0.699303944 53.1894908,0.541639056 56.2119908,3.88692906 C56.9981908,4.77275906 58.1127908,6.07555906 59.2830908,7.45136906 L60.6966908,9.11536906 L61.3907908,9.93232906 L62.0758908,10.7645291 C62.3291908,11.0198291 62.6887908,11.1543291 63.0768908,11.0503291 C73.4265908,8.27711906 84.1409908,14.4552291 86.9110908,24.7933291 L93.7670908,50.3802291 C96.5371908,60.7184291 90.3472908,71.4260291 79.9975908,74.1992291 L31.3542908,87.2331291 C20.9614908,90.0178291 10.2901908,83.8282291 7.52008079,73.4901291 L0.664079787,47.9031291 C-2.10601921,37.5650291 4.04082079,26.8689291 14.4335908,24.0842291 C14.7785908,23.9918291 15.0773908,23.7270291 15.1143908,23.3478291 L15.2346908,22.7615291 C15.7610908,19.8965291 16.3962908,16.4022291 16.7970908,14.4481291 C17.7419908,10.0397291 20.5284908,6.98470906 24.6999908,5.82080906 L45.0110908,0.378446056 Z M42.2755908,30.7053291 C37.7475908,31.9186291 33.9515908,34.8286291 31.5829908,38.9259291 C29.2574908,43.0116291 28.6205908,47.7068291 29.8640908,52.1751291 C31.0759908,56.6981291 33.9751908,60.4457291 38.0319908,62.8213291 C42.1203908,65.1423291 46.8196908,65.7760291 51.3476908,64.5628291 C56.0049908,63.3148291 59.7232908,60.2871291 61.9654908,56.4084291 C64.2077908,52.5296291 64.9740908,47.7998291 63.7591908,43.0930291 C62.5587908,38.6131291 59.6480908,34.8224291 55.5912908,32.4467291 C51.5459908,30.1142291 46.8035908,29.4920291 42.2755908,30.7053291 Z M44.0068908,37.1667291 C46.8098908,36.4156291 49.7289908,36.7876291 52.2435908,38.2376291 C54.7582908,39.6875291 56.5403908,42.0263291 57.2905908,44.8262291 C58.7941908,50.6099291 55.3948908,56.5531291 49.6163908,58.1014291 C46.8132908,58.8525291 43.8941908,58.4804291 41.3795908,57.0305291 C38.8649908,55.5805291 37.0828908,53.2418291 36.3325908,50.4419291 L36.3210908,50.3988291 C35.5507908,47.6966291 35.9247908,44.7801291 37.3775908,42.2671291 C38.8618908,39.6995291 41.2038908,37.9177291 44.0068908,37.1667291 Z M66.1908908,23.1892291 C64.0346908,23.7669291 62.7829908,25.9952291 63.3600908,28.1490291 C63.9371908,30.3028291 66.1237908,31.5636291 68.2799908,30.9859291 C70.4361908,30.4081291 71.7424908,28.2114291 71.1653908,26.0576291 C70.5882908,23.9038291 68.3469908,22.6114291 66.1908908,23.1892291 Z" id="Shape"></path>
        </g>
    </g>
</svg>