<svg width="30" height="30" viewBox="0 0 30 30" fill="none" xmlns="http://www.w3.org/2000/svg">
<path fill-rule="evenodd" clip-rule="evenodd" d="M14.6735 2.5C21.386 2.5 26.846 7.96 26.846 14.6725C26.846 17.8394 25.6307 20.7278 23.6418 22.8956L27.5553 26.8009C27.9215 27.1671 27.9228 27.7596 27.5565 28.1259C27.374 28.3109 27.1328 28.4021 26.8928 28.4021C26.654 28.4021 26.414 28.3109 26.2303 28.1284L22.2696 24.1788C20.1861 25.8473 17.5444 26.8462 14.6735 26.8462C7.96101 26.8462 2.49976 21.385 2.49976 14.6725C2.49976 7.96 7.96101 2.5 14.6735 2.5ZM14.6735 4.375C8.99476 4.375 4.37476 8.99375 4.37476 14.6725C4.37476 20.3512 8.99476 24.9712 14.6735 24.9712C20.351 24.9712 24.971 20.3512 24.971 14.6725C24.971 8.99375 20.351 4.375 14.6735 4.375Z" fill="#879099"/>
</svg>
