<svg
    xmlns="http://www.w3.org/2000/svg"
    viewBox="0 0 64 64"
    id="vector">
    <path
        id="path"
        d="M 56 24 C 56.006 18.265 53.956 12.713 50.224 8.359 C 46.492 4.004 41.32 1.128 35.652 0.255 C 29.983 -0.618 24.186 0.57 19.317 3.6 C 14.448 6.631 10.823 11.309 9.104 16.78 C 7.385 22.252 7.682 28.162 9.942 33.433 C 12.202 38.704 16.278 42.994 21.427 45.521 L 28.141 58.948 C 28.621 59.908 29.443 60.655 30.444 61.042 C 31.445 61.429 32.555 61.429 33.556 61.042 C 34.557 60.655 35.379 59.908 35.859 58.948 L 42.573 45.521 C 46.599 43.548 49.992 40.485 52.365 36.681 C 54.739 32.878 55.998 28.483 56 24 Z M 32 16 C 33.693 15.995 35.344 16.527 36.716 17.519 C 38.087 18.511 39.109 19.914 39.633 21.523 C 40.157 23.133 40.157 24.868 39.633 26.478 C 39.109 28.087 38.087 29.49 36.716 30.482 C 35.344 31.474 33.693 32.006 32 32.001 C 29.883 31.994 27.853 31.148 26.359 29.649 C 24.865 28.15 24.025 26.117 24.025 24 C 24.025 21.884 24.865 19.851 26.359 18.352 C 27.853 16.853 29.883 16.007 32 16 Z"
        fill="#000000"/>
</svg>
