<svg
    xmlns="http://www.w3.org/2000/svg"
    viewBox="0 0 64 64"
    id="vector">
    <path
        id="path"
        d="M 13.801 49.741 C 13.682 49.62 13.604 49.465 13.579 49.297 C 13.554 49.129 13.583 48.958 13.662 48.808 C 13.74 48.658 13.864 48.536 14.016 48.461 C 14.168 48.386 14.34 48.36 14.507 48.389 C 14.674 48.418 14.828 48.498 14.946 48.62 C 17.163 50.888 19.811 52.689 22.734 53.917 C 25.658 55.145 28.798 55.775 31.969 55.77 C 38.493 55.77 44.596 53.139 49.052 48.56 C 49.2 48.408 49.403 48.322 49.615 48.319 C 49.827 48.316 50.031 48.398 50.183 48.546 C 50.335 48.694 50.423 48.896 50.426 49.108 C 50.429 49.32 50.348 49.525 50.201 49.677 C 47.833 52.116 44.999 54.055 41.867 55.376 C 38.735 56.698 35.369 57.377 31.969 57.372 C 28.585 57.377 25.234 56.704 22.114 55.394 C 18.993 54.084 16.167 52.162 13.801 49.742 Z M 50.191 14.313 C 50.31 14.434 50.387 14.59 50.412 14.757 C 50.436 14.925 50.407 15.096 50.328 15.247 C 50.249 15.397 50.125 15.518 49.973 15.593 C 49.82 15.668 49.648 15.692 49.481 15.663 C 49.314 15.634 49.161 15.553 49.043 15.431 C 46.825 13.148 44.17 11.334 41.237 10.098 C 38.304 8.861 35.152 8.226 31.969 8.231 C 28.818 8.226 25.697 8.848 22.789 10.061 C 19.881 11.274 17.243 13.053 15.029 15.295 C 14.91 15.416 14.756 15.496 14.589 15.524 C 14.422 15.551 14.25 15.525 14.098 15.449 C 13.947 15.373 13.823 15.251 13.746 15.1 C 13.668 14.95 13.64 14.778 13.666 14.611 C 13.692 14.443 13.77 14.288 13.89 14.168 C 16.253 11.775 19.069 9.876 22.172 8.581 C 25.276 7.287 28.607 6.623 31.97 6.628 C 35.367 6.623 38.73 7.301 41.86 8.621 C 44.99 9.941 47.823 11.877 50.19 14.313 Z M 31.948 47.85 C 31.779 47.852 31.613 47.8 31.475 47.702 C 31.337 47.604 31.233 47.464 31.179 47.303 C 31.126 47.142 31.124 46.969 31.175 46.807 C 31.226 46.646 31.328 46.504 31.464 46.404 C 31.601 46.303 31.766 46.249 31.935 46.248 C 35.716 46.216 39.335 44.693 42.002 42.013 C 44.687 39.341 46.21 35.713 46.237 31.925 C 46.239 31.713 46.325 31.51 46.477 31.362 C 46.628 31.213 46.832 31.13 47.044 31.132 C 47.256 31.133 47.459 31.219 47.608 31.369 C 47.757 31.52 47.841 31.724 47.84 31.936 C 47.81 36.145 46.119 40.176 43.136 43.146 C 40.172 46.123 36.149 47.815 31.948 47.85 Z M 32.015 16.159 C 32.227 16.158 32.431 16.24 32.582 16.389 C 32.733 16.537 32.819 16.74 32.821 16.952 C 32.824 17.164 32.742 17.368 32.593 17.52 C 32.445 17.671 32.243 17.758 32.031 17.761 C 28.258 17.799 24.647 19.321 21.985 21.996 C 19.32 24.649 17.798 28.244 17.751 32.004 C 17.749 32.174 17.694 32.338 17.593 32.475 C 17.492 32.611 17.35 32.711 17.188 32.762 C 17.026 32.812 16.852 32.81 16.692 32.756 C 16.531 32.701 16.392 32.597 16.294 32.458 C 16.197 32.32 16.145 32.154 16.148 31.984 C 16.201 27.806 17.89 23.81 20.852 20.862 C 23.81 17.891 27.822 16.201 32.015 16.159 Z M 36.531 27.467 C 37.513 28.418 38.165 29.66 38.391 31.008 C 38.618 32.356 38.407 33.742 37.79 34.962 C 37.173 36.182 36.182 37.173 34.962 37.79 C 33.742 38.407 32.356 38.618 31.008 38.391 C 29.66 38.165 28.418 37.513 27.467 36.531 C 26.296 35.323 25.647 33.702 25.66 32.02 C 25.673 30.338 26.348 28.727 27.537 27.537 C 28.727 26.348 30.338 25.673 32.02 25.66 C 33.702 25.647 35.323 26.296 36.531 27.467 Z"
        fill="#000000"/>
</svg>
