<svg
    xmlns="http://www.w3.org/2000/svg"
    viewBox="0 0 64 64"
    id="vector">
    <path
        id="path"
        d="M 55.652 41.622 C 58.595 35.966 59.418 29.438 57.969 23.229 C 56.52 17.019 52.895 11.529 47.752 7.759 C 42.61 3.989 36.284 2.183 29.926 2.669 C 23.568 3.155 17.59 5.903 13.082 10.412 C 8.573 14.92 5.824 20.898 5.337 27.256 C 4.85 33.613 6.656 39.94 10.426 45.082 C 14.195 50.225 19.685 53.851 25.894 55.3 C 32.104 56.75 38.631 55.928 44.288 52.985 L 52.627 55.765 C 53.71 56.126 54.89 56.071 55.934 55.609 C 56.979 55.147 57.814 54.312 58.276 53.267 C 58.737 52.223 58.793 51.043 58.431 49.96 L 55.651 41.622 Z M 45.333 25.333 C 46.186 25.32 47.022 25.579 47.717 26.074 C 48.412 26.569 48.93 27.274 49.197 28.084 C 49.463 28.895 49.463 29.77 49.197 30.581 C 48.93 31.391 48.412 32.096 47.717 32.591 C 47.022 33.086 46.186 33.345 45.333 33.332 C 44.284 33.315 43.282 32.886 42.546 32.138 C 41.809 31.391 41.396 30.382 41.396 29.332 C 41.396 28.283 41.809 27.274 42.546 26.527 C 43.282 25.779 44.284 25.35 45.333 25.333 Z M 18.667 33.333 C 17.607 33.333 16.588 32.911 15.839 32.161 C 15.089 31.412 14.667 30.393 14.667 29.333 C 14.667 28.273 15.089 27.254 15.839 26.505 C 16.588 25.755 17.607 25.333 18.667 25.333 C 19.727 25.333 20.746 25.755 21.495 26.505 C 22.245 27.254 22.667 28.273 22.667 29.333 C 22.667 30.393 22.245 31.412 21.495 32.161 C 20.746 32.911 19.727 33.333 18.667 33.333 Z M 28 29.333 C 28 28.273 28.422 27.254 29.172 26.505 C 29.921 25.755 30.94 25.333 32 25.333 C 33.06 25.333 34.079 25.755 34.828 26.505 C 35.578 27.254 36 28.273 36 29.333 C 36 30.393 35.578 31.412 34.828 32.161 C 34.079 32.911 33.06 33.333 32 33.333 C 30.94 33.333 29.921 32.911 29.172 32.161 C 28.422 31.412 28 30.393 28 29.333 Z"
        fill="#000000"/>
</svg>
