<svg
    xmlns="http://www.w3.org/2000/svg"
    viewBox="0 0 64 46"
    id="vector">
    <path
        id="path"
        d="M 10.557 1 C 4.865 6.577 1.333 14.356 1.333 22.962 C 1.333 31.607 4.898 39.418 10.635 45 M 53.378 44.987 C 59.108 39.406 62.667 31.6 62.667 22.962 C 62.667 14.412 59.18 6.677 53.553 1.108"
        fill="#00000000"
        stroke="#000000"
        stroke-width="2"
        stroke-linecap="round"
        stroke-linejoin="round"/>
    <path
        id="path_1"
        d="M 18.768 9.667 C 15.409 13.082 13.333 17.791 13.333 22.991 C 13.333 28.2 15.417 32.916 18.787 36.333 M 45.252 36.294 C 48.599 32.88 50.667 28.18 50.667 22.991 C 50.667 17.82 48.613 13.134 45.287 9.723"
        fill="#00000000"
        stroke="#000000"
        stroke-width="2"
        stroke-linecap="round"
        stroke-linejoin="round"/>
    <path
        id="path_2"
        d="M 32 23 M 25 23 C 25 21.522 25.468 20.081 26.337 18.886 C 27.206 17.69 28.431 16.799 29.837 16.343 C 31.243 15.886 32.757 15.886 34.163 16.343 C 35.569 16.799 36.794 17.69 37.663 18.886 C 38.532 20.081 39 21.522 39 23 C 39 24.478 38.532 25.919 37.663 27.114 C 36.794 28.31 35.569 29.201 34.163 29.657 C 32.757 30.114 31.243 30.114 29.837 29.657 C 28.431 29.201 27.206 28.31 26.337 27.114 C 25.468 25.919 25 24.478 25 23"
        fill="#00000000"
        stroke="#000000"
        stroke-width="2"/>
</svg>
