<svg
    xmlns="http://www.w3.org/2000/svg"
    viewBox="0 0 64 64"
    id="vector">
    <path
        id="path"
        d="M 23.89 53.612 C 20.011 52.32 16.801 49.537 14.972 45.881 C 13.142 42.225 12.839 37.987 14.13 34.108 L 22.157 10.01 C 22.258 9.712 22.251 9.388 22.136 9.095 C 22.021 8.803 21.806 8.56 21.529 8.411 C 21.253 8.261 20.932 8.215 20.624 8.279 C 20.341 8.345 20.06 8.424 19.784 8.516 L 6.882 12.817 C 5.876 13.153 4.928 13.645 4.076 14.277 L 4.073 14.279 C 2.81 15.215 1.783 16.433 1.076 17.837 C 0.368 19.241 0 20.792 0 22.364 L 0 22.367 C 0 23.449 0.174 24.523 0.516 25.549 L 10.168 54.505 C 10.497 55.491 10.982 56.417 11.604 57.249 C 12.545 58.508 13.765 59.532 15.167 60.242 C 16.57 60.951 18.117 61.327 19.689 61.34 L 19.713 61.34 C 20.791 61.34 21.861 61.167 22.884 60.828 L 30.44 58.318 C 30.706 58.23 30.937 58.06 31.101 57.833 C 31.264 57.606 31.353 57.333 31.353 57.053 C 31.353 56.773 31.264 56.5 31.101 56.273 C 30.937 56.046 30.706 55.876 30.44 55.788 L 23.89 53.612 Z"
        fill="#000000"/>
    <path
        id="path_1"
        d="M 57.309 6.315 L 57.306 6.313 C 56.441 5.664 55.477 5.159 54.451 4.817 L 41.549 0.517 C 39.873 -0.042 38.079 -0.15 36.349 0.204 C 34.618 0.558 33.01 1.362 31.689 2.534 C 30.367 3.706 29.377 5.206 28.819 6.882 L 19.19 35.793 C 18.85 36.813 18.676 37.882 18.675 38.957 L 18.675 38.98 C 18.672 40.539 19.032 42.077 19.726 43.473 C 20.419 44.869 21.428 46.085 22.672 47.025 L 22.679 47.03 C 23.554 47.691 24.531 48.204 25.571 48.55 L 38.449 52.827 C 39.472 53.167 40.542 53.34 41.62 53.34 L 41.645 53.34 C 43.204 53.338 44.742 52.973 46.137 52.275 C 47.531 51.577 48.744 50.564 49.68 49.316 L 49.687 49.306 C 50.336 48.441 50.841 47.477 51.183 46.451 L 60.817 17.549 C 61.159 16.523 61.333 15.448 61.333 14.367 L 61.333 14.364 C 61.333 12.802 60.969 11.261 60.271 9.864 C 59.573 8.467 58.558 7.251 57.309 6.314 Z"
        fill="#000000"/>
</svg>
