<svg width="21" height="21" viewBox="0 0 21 21" fill="none" xmlns="http://www.w3.org/2000/svg">
<path d="M8.27642 1.0056C9.49561 -0.222528 11.4859 -0.222528 12.7155 0.996222L13.4762 1.7556C13.768 2.04726 14.164 2.21497 14.5808 2.21497H15.6541C17.3839 2.21497 18.7907 3.62018 18.7907 5.34935V6.42331C18.7907 6.83893 18.9574 7.23477 19.2492 7.52643L19.9994 8.27643C20.5934 8.85977 20.9164 9.65143 20.9164 10.4848C20.9268 11.3181 20.6038 12.1108 20.0203 12.7035L19.2492 13.4743C18.9574 13.766 18.7907 14.1618 18.7907 14.5796V15.6514C18.7907 17.3806 17.3839 18.7879 15.6541 18.7879H14.5808C14.164 18.7879 13.768 18.9535 13.4762 19.2452L12.726 19.9952C12.1111 20.6108 11.3088 20.9119 10.5064 20.9119C9.70402 20.9119 8.90165 20.6108 8.28684 20.0066L7.52615 19.2452C7.23438 18.9535 6.8384 18.7879 6.42158 18.7879H5.34828C3.61848 18.7879 2.21172 17.3806 2.21172 15.6514V14.5796C2.21172 14.1618 2.04499 13.766 1.75322 13.4639L1.00295 12.7243C-0.216243 11.5066 -0.226663 9.51602 0.992529 8.28789L1.75322 7.52643C2.04499 7.23477 2.21172 6.83893 2.21172 6.41185V5.34935C2.21172 3.62018 3.61848 2.21497 5.34828 2.21497H6.42158C6.8384 2.21497 7.23438 2.04726 7.52615 1.7556L8.27642 1.0056Z" fill="#00C2FF"/>
<path fill-rule="evenodd" clip-rule="evenodd" d="M14.6672 7.31864C15.1109 7.7435 15.1109 8.43233 14.6672 8.85719L9.76129 13.5539C9.14 14.1487 8.1327 14.1487 7.51141 13.5539L5.33282 11.4682C4.88904 11.0433 4.88904 10.3545 5.33282 9.92964C5.7766 9.50479 6.4961 9.50479 6.93988 9.92964L8.63635 11.5538L13.0601 7.31864C13.5039 6.89379 14.2234 6.89379 14.6672 7.31864Z" fill="white"/>
</svg>
