<svg width="45" height="45" viewBox="0 0 45 45" fill="none" xmlns="http://www.w3.org/2000/svg">
<path d="M31.5943 0H13.4057C6.01379 0 0 6.01379 0 13.4057V31.5943C0 38.9862 6.01379 45 13.4057 45H31.5943C38.9862 45 45 38.9862 45 31.5943V13.4057C44.9999 6.01379 38.9861 0 31.5943 0ZM40.473 31.5943C40.473 36.4978 36.4978 40.473 31.5943 40.473H13.4057C8.50219 40.473 4.527 36.4978 4.527 31.5943V13.4057C4.527 8.50211 8.50219 4.527 13.4057 4.527H31.5943C36.4978 4.527 40.473 8.50211 40.473 13.4057V31.5943Z" fill="white"/>
<path d="M22.5 10.8615C16.0825 10.8615 10.8614 16.0825 10.8614 22.5C10.8614 28.9174 16.0825 34.1386 22.5 34.1386C28.9176 34.1386 34.1386 28.9175 34.1386 22.5C34.1386 16.0824 28.9176 10.8615 22.5 10.8615ZM22.5 29.6116C18.5724 29.6116 15.3884 26.4277 15.3884 22.5C15.3884 18.5724 18.5724 15.3884 22.5 15.3884C26.4277 15.3884 29.6116 18.5724 29.6116 22.5C29.6116 26.4276 26.4276 29.6116 22.5 29.6116Z" fill="white"/>
<path d="M34.1611 13.7377C35.7013 13.7377 36.95 12.4891 36.95 10.9488C36.95 9.40858 35.7013 8.15997 34.1611 8.15997C32.6209 8.15997 31.3723 9.40858 31.3723 10.9488C31.3723 12.4891 32.6209 13.7377 34.1611 13.7377Z" fill="white"/>
</svg>
