<svg width="25" height="25" viewBox="0 0 25 25" fill="none" xmlns="http://www.w3.org/2000/svg">
<path d="M17.5524 0H7.44764C3.34099 0 0 3.34099 0 7.44764V17.5524C0 21.659 3.34099 25 7.44764 25H17.5524C21.659 25 25 21.659 25 17.5524V7.44764C25 3.34099 21.659 0 17.5524 0ZM22.485 17.5524C22.485 20.2766 20.2766 22.485 17.5524 22.485H7.44764C4.72344 22.485 2.515 20.2766 2.515 17.5524V7.44764C2.515 4.72339 4.72344 2.515 7.44764 2.515H17.5524C20.2766 2.515 22.485 4.72339 22.485 7.44764V17.5524Z" fill="url(#paint0_linear_262:626)"/>
<path d="M12.5001 6.03418C8.93477 6.03418 6.03418 8.93477 6.03418 12.5C6.03418 16.0653 8.93477 18.9659 12.5001 18.9659C16.0654 18.9659 18.966 16.0653 18.966 12.5C18.966 8.93473 16.0654 6.03418 12.5001 6.03418ZM12.5001 16.451C10.318 16.451 8.54918 14.6821 8.54918 12.5001C8.54918 10.318 10.3181 8.54918 12.5001 8.54918C14.6821 8.54918 16.451 10.318 16.451 12.5001C16.451 14.6821 14.6821 16.451 12.5001 16.451Z" fill="url(#paint1_linear_262:626)"/>
<path d="M18.9784 7.63205C19.8341 7.63205 20.5278 6.93837 20.5278 6.08269C20.5278 5.227 19.8341 4.53333 18.9784 4.53333C18.1227 4.53333 17.4291 5.227 17.4291 6.08269C17.4291 6.93837 18.1227 7.63205 18.9784 7.63205Z" fill="#27E150"/>
<defs>
<linearGradient id="paint0_linear_262:626" x1="12.5" y1="24.9272" x2="12.5" y2="0.194179" gradientUnits="userSpaceOnUse">
<stop stop-color="#00E0AA"/>
<stop offset="1" stop-color="#27E150"/>
</linearGradient>
<linearGradient id="paint1_linear_262:626" x1="12.5001" y1="24.9273" x2="12.5001" y2="0.194252" gradientUnits="userSpaceOnUse">
<stop stop-color="#00E0AA"/>
<stop offset="1" stop-color="#27E150"/>
</linearGradient>
</defs>
</svg>
