<svg width="63" height="25" viewBox="0 0 63 25" fill="none" xmlns="http://www.w3.org/2000/svg">
<rect width="63" height="25" rx="12.5" fill="black"/>
<circle cx="51.5" cy="12.5" r="5.625" stroke="white"/>
<path d="M51.5 14.375L51.5 10.625" stroke="white" stroke-linecap="square"/>
<path d="M53.375 12.5L49.625 12.5" stroke="white" stroke-linecap="square"/>
<path d="M19.392 5.25C21.105 5.25 22.4993 6.63151 22.4993 8.32886L22.5 10.3368C22.5 10.484 22.4408 10.6267 22.3358 10.7307C22.23 10.8355 22.0875 10.8942 21.9375 10.8942C21.3217 10.8942 20.8207 11.3906 20.8207 12.0007C20.8207 12.6109 21.3217 13.1073 21.9375 13.1073C22.248 13.1073 22.5 13.357 22.5 13.6646V15.6719C22.5 17.3692 21.1065 18.75 19.3935 18.75H10.6073C8.89425 18.75 7.5 17.3692 7.5 15.6719V13.6646C7.5 13.357 7.752 13.1073 8.0625 13.1073C8.679 13.1073 9.18 12.6109 9.18 12.0007C9.18 11.4062 8.69925 10.9589 8.0625 10.9589C7.91325 10.9589 7.77075 10.9001 7.665 10.7954C7.55925 10.6906 7.5 10.5486 7.5 10.4015L7.5015 8.32886C7.5015 6.63151 8.895 5.25 10.608 5.25H19.392ZM15.0015 9.11511C14.7885 9.11511 14.598 9.23252 14.5027 9.42128L13.956 10.5189L12.7365 10.695C12.5257 10.7248 12.3533 10.8674 12.2865 11.0681C12.2205 11.2687 12.2737 11.4857 12.4267 11.6329L13.311 12.486L13.1025 13.6921C13.0665 13.9002 13.1512 14.1068 13.3238 14.2309C13.4212 14.3 13.5345 14.3357 13.6493 14.3357C13.737 14.3357 13.8255 14.3142 13.9065 14.2718L15 13.7025L16.0912 14.2703C16.2802 14.3706 16.5045 14.355 16.6762 14.2302C16.8495 14.1068 16.9342 13.9002 16.8983 13.6921L16.689 12.486L17.5732 11.6329C17.727 11.4857 17.7802 11.2687 17.7135 11.0681C17.6475 10.8674 17.475 10.7248 17.2665 10.6958L16.0448 10.5189L15.498 9.42202C15.4042 9.23327 15.2137 9.11585 15.0015 9.11511Z" fill="white"/>
<path d="M27.6984 9.25V7.794H30.6104V18H29.0004V9.25H27.6984ZM32.8029 12.764C32.8029 11.1493 33.0736 9.88933 33.6149 8.984C34.1656 8.06933 35.1082 7.612 36.4429 7.612C37.7776 7.612 38.7156 8.06933 39.2569 8.984C39.8076 9.88933 40.0829 11.1493 40.0829 12.764C40.0829 14.3973 39.8076 15.676 39.2569 16.6C38.7156 17.5147 37.7776 17.972 36.4429 17.972C35.1082 17.972 34.1656 17.5147 33.6149 16.6C33.0736 15.676 32.8029 14.3973 32.8029 12.764ZM38.5149 12.764C38.5149 12.008 38.4636 11.3687 38.3609 10.846C38.2676 10.3233 38.0716 9.89867 37.7729 9.572C37.4742 9.236 37.0309 9.068 36.4429 9.068C35.8549 9.068 35.4116 9.236 35.1129 9.572C34.8142 9.89867 34.6136 10.3233 34.5109 10.846C34.4176 11.3687 34.3709 12.008 34.3709 12.764C34.3709 13.548 34.4176 14.206 34.5109 14.738C34.6042 15.27 34.8002 15.6993 35.0989 16.026C35.4069 16.3527 35.8549 16.516 36.4429 16.516C37.0309 16.516 37.4742 16.3527 37.7729 16.026C38.0809 15.6993 38.2816 15.27 38.3749 14.738C38.4682 14.206 38.5149 13.548 38.5149 12.764Z" fill="white"/>
</svg>
