<svg width="14" height="14" viewBox="0 0 14 14" fill="none" xmlns="http://www.w3.org/2000/svg">
<path d="M13.8669 7.57067C13.9174 7.59903 13.9275 7.65914 13.9295 7.68205L13.93 7.69118L13.8739 11.3064C13.8739 12.7484 12.7566 13.9244 11.3496 13.9965L11.2126 14H2.78039C1.35562 14 0.193745 12.8691 0.12252 11.4451L0.11906 11.3064L0.0700351 7.69118C0.0700351 7.69118 0.0700351 7.60611 0.133067 7.57067C0.189095 7.53523 0.25913 7.57776 0.266133 7.58485C1.68084 8.53472 3.38269 9.1656 5.16859 9.42788C5.42071 9.46332 5.67284 9.30028 5.74287 9.0451C5.88732 8.50016 6.33338 8.12967 6.87909 8.08549L6.9895 8.08105H7.01051C7.60581 8.08105 8.10306 8.46383 8.25713 9.0451C8.32717 9.30028 8.57929 9.46332 8.83142 9.42788C10.6173 9.1656 12.3192 8.53472 13.7339 7.58485C13.7339 7.58485 13.7479 7.57776 13.7619 7.57067C13.7899 7.5565 13.8319 7.54941 13.8669 7.57067ZM6.9965 9.09472C6.73329 9.09472 6.51127 9.29723 6.47609 9.55485L6.47124 9.62636V10.5408C6.47124 10.8385 6.70936 11.0724 6.9965 11.0724C7.26614 11.0724 7.48281 10.8759 7.51705 10.6138L7.52176 10.5408V9.62636C7.52176 9.33573 7.29065 9.09472 6.9965 9.09472ZM7.89995 0C8.95048 0 9.81191 0.801009 9.94498 1.82885H11.3317C12.8024 1.82885 14 3.041 14 4.5296C14 4.5296 13.958 5.15978 13.944 6.03734C13.9426 6.10681 13.909 6.17486 13.8536 6.21597C13.5168 6.46478 13.2086 6.67035 13.1806 6.68453C12.018 7.46427 10.667 8.01293 9.22782 8.28584C9.13397 8.30427 9.04153 8.25536 8.9939 8.17171C8.5905 7.47278 7.83692 7.01769 6.9965 7.01769C6.16168 7.01769 5.4011 7.46782 4.9858 8.16746C4.93747 8.24969 4.84643 8.29718 4.75328 8.27946C3.32596 8.00584 1.97499 7.45789 0.81941 6.69162L0.147074 6.22377C0.0910456 6.18833 0.056028 6.12453 0.056028 6.05365C0.0350175 5.69213 0 4.5296 0 4.5296C0 3.041 1.1976 1.82885 2.66834 1.82885H4.04803C4.18109 0.801009 5.04252 0 6.09305 0H7.89995ZM7.89995 1.06329H6.09305C5.62382 1.06329 5.22462 1.38936 5.11256 1.82885H8.88045C8.76839 1.38936 8.36919 1.06329 7.89995 1.06329Z" fill="#879099"/>
</svg>
