<svg width="20" height="16" viewBox="0 0 20 16" fill="none" xmlns="http://www.w3.org/2000/svg">
<path d="M2.93195 14.7597C3.18216 14.1561 2.89565 13.4639 2.29202 13.2137C1.6884 12.9635 0.996227 13.25 0.746021 13.8537C0.495816 14.4573 0.782322 15.1495 1.38595 15.3997C1.98958 15.6499 2.68175 15.3634 2.93195 14.7597Z" fill="#879099"/>
<path d="M10.1528 9.09407C9.8717 9.09407 9.59482 9.04658 9.32978 8.95293L3.36359 6.84448V11.164C3.36359 11.4389 3.52674 11.6863 3.77771 11.7986C7.82844 13.6108 12.4772 13.6108 16.5279 11.7986C16.7788 11.6863 16.942 11.4389 16.942 11.164V6.84448L10.9758 8.95293C10.7108 9.04658 10.4339 9.09407 10.1528 9.09407Z" fill="#879099"/>
<path d="M19.1744 3.52191L10.6049 0.493485C10.3124 0.390111 9.99326 0.390111 9.70069 0.493485L1.13129 3.52191C0.493346 3.74735 0.493346 4.64952 1.13129 4.87497L1.2803 4.92762V12.0748C1.45859 12.0303 1.64497 12.0063 1.83687 12.0063C2.02878 12.0063 2.21516 12.0303 2.39345 12.0748V5.32101L9.70072 7.90339C9.99326 8.00676 10.3124 8.00676 10.605 7.90339L19.1744 4.87497C19.8123 4.64952 19.8123 3.74735 19.1744 3.52191Z" fill="#879099"/>
</svg>
