<svg width="12" height="12" viewBox="0 0 12 12" fill="none" xmlns="http://www.w3.org/2000/svg">
<path d="M9.20295 7.56078C9.05729 7.70939 8.99036 7.92431 9.02354 8.13508L9.52354 11.048C9.56572 11.2949 9.46673 11.5448 9.27045 11.6875C9.0781 11.8355 8.82219 11.8533 8.61241 11.7348L6.12142 10.3672C6.03481 10.3186 5.93863 10.2926 5.84021 10.2896H5.68779C5.63492 10.2979 5.58318 10.3157 5.53593 10.3429L3.04438 11.7171C2.92121 11.7822 2.78173 11.8053 2.64506 11.7822C2.3121 11.7159 2.08995 11.382 2.1445 11.0297L2.64506 8.11673C2.67824 7.90418 2.61132 7.68807 2.46565 7.5371L0.434724 5.46487C0.264872 5.29139 0.205817 5.03088 0.283432 4.79583C0.358797 4.56137 0.551147 4.39027 0.783429 4.35178L3.57869 3.9249C3.79129 3.90181 3.97801 3.76564 4.07362 3.56433L5.30534 0.905959C5.33458 0.846753 5.37227 0.792283 5.41782 0.746101L5.46844 0.704657C5.49488 0.673869 5.52525 0.648411 5.55899 0.627688L5.6203 0.604006L5.71591 0.562561H5.95269C6.16416 0.585652 6.35033 0.718866 6.44763 0.9178L7.69565 3.56433C7.78564 3.75794 7.96055 3.89234 8.16247 3.9249L10.9577 4.35178C11.1939 4.38731 11.3914 4.55901 11.4695 4.79583C11.5432 5.03325 11.4797 5.29376 11.3064 5.46487L9.20295 7.56078Z" fill="#FFD600"/>
</svg>
