<svg width="30" height="27" viewBox="0 0 30 27" fill="none" xmlns="http://www.w3.org/2000/svg">
<path d="M23.6118 0.705883C26.9706 0.705883 29.7045 3.32443 29.7045 6.54162L29.7059 10.3476C29.7059 10.6265 29.5898 10.8969 29.3839 11.0941C29.1765 11.2928 28.8971 11.404 28.603 11.404C27.3956 11.404 26.4133 12.345 26.4133 13.5014C26.4133 14.6579 27.3956 15.5988 28.603 15.5988C29.2118 15.5988 29.7059 16.0721 29.7059 16.6552V20.4598C29.7059 23.677 26.9736 26.2941 23.6147 26.2941H6.3868C3.02798 26.2941 0.294151 23.677 0.294151 20.4598V16.6552C0.294151 16.0721 0.788269 15.5988 1.39709 15.5988C2.60592 15.5988 3.58827 14.6579 3.58827 13.5014C3.58827 12.3745 2.64562 11.5266 1.39709 11.5266C1.10445 11.5266 0.825034 11.4153 0.617681 11.2167C0.410328 11.0181 0.294151 10.749 0.294151 10.4701L0.297092 6.54162C0.297092 3.32443 3.02945 0.705883 6.38827 0.705883H23.6118ZM15.003 8.0319C14.5853 8.0319 14.2118 8.25446 14.025 8.61223L12.953 10.6927L10.5618 11.0265C10.1486 11.0829 9.81033 11.3533 9.67945 11.7336C9.55004 12.114 9.65445 12.5253 9.95445 12.8042L11.6883 14.4212L11.2794 16.7073C11.2089 17.1017 11.375 17.4933 11.7133 17.7286C11.9044 17.8596 12.1265 17.9272 12.3515 17.9272C12.5236 17.9272 12.6971 17.8863 12.8559 17.806L15 16.7271L17.1397 17.8032C17.5103 17.9934 17.95 17.9638 18.2868 17.7271C18.6265 17.4933 18.7927 17.1017 18.7221 16.7073L18.3118 14.4212L20.0456 12.8042C20.3471 12.5253 20.4515 12.114 20.3206 11.7336C20.1912 11.3533 19.853 11.0829 19.4442 11.0279L17.0486 10.6927L15.9765 8.61364C15.7927 8.25586 15.4192 8.03331 15.003 8.0319Z" fill="white"/>
</svg>
