<svg width="119" height="109" viewBox="0 0 119 109" fill="none" xmlns="http://www.w3.org/2000/svg">
<rect x="36" y="29" width="46" height="48" fill="#FFF500"/>
<path d="M85.7793 3.05019C98.0278 1.7657 109.033 10.5985 110.306 22.7351L111.817 37.0922C111.927 38.1444 111.611 39.209 110.938 40.0317C110.26 40.8602 109.285 41.3869 108.213 41.4993C103.81 41.9611 100.6 45.8863 101.057 50.2489C101.515 54.6115 105.469 57.7854 109.872 57.3237C112.092 57.0908 114.082 58.6873 114.312 60.8872L115.817 75.2396C117.09 87.3762 108.161 98.2941 95.913 99.5785L33.0884 106.167C20.8399 107.451 9.83515 98.6239 8.5624 86.4873L7.05728 72.1349C6.82658 69.935 8.44123 67.9606 10.6614 67.7278C15.0696 67.2655 18.2797 63.3403 17.8222 58.9777C17.3764 54.7267 13.6034 51.8883 9.0504 52.3658C7.98322 52.4777 6.92027 52.1648 6.08555 51.4948C5.25083 50.8249 4.72074 49.8544 4.61041 48.8022L3.06697 33.9811C1.79422 21.8445 10.7223 10.9213 22.9708 9.63685L85.7793 3.05019ZM57.284 33.9792C55.761 34.1389 54.4869 35.1213 53.9474 36.5424L50.861 44.8008L42.2732 46.9746C40.7886 47.3452 39.6621 48.4948 39.3353 49.9795C39.0138 51.4637 39.5573 52.9754 40.7617 53.9128L47.7241 59.3499L47.1376 68.1305C47.0362 69.6453 47.7971 71.059 49.1236 71.817C49.8726 72.2381 50.7091 72.4083 51.5296 72.3222C52.1571 72.2564 52.7737 72.036 53.3211 71.6723L60.7132 66.782L68.9417 70.0235C70.3683 70.5991 71.9601 70.3194 73.0946 69.2979C74.2408 68.2859 74.6919 66.7451 74.2785 65.2843L71.8779 56.8169L77.5608 50.0537C78.5499 48.8863 78.7679 47.2948 78.1402 45.9101C77.5178 44.5249 76.1774 43.634 74.6648 43.5831L65.7962 43.2346L61.0643 35.8015C60.2524 34.5221 58.8022 33.8253 57.284 33.9792Z" fill="url(#paint0_linear_226_392)"/>
<defs>
<linearGradient id="paint0_linear_226_392" x1="4.73623" y1="60.3446" x2="114.136" y2="48.8719" gradientUnits="userSpaceOnUse">
<stop stop-color="#27E150"/>
<stop offset="1" stop-color="#00E0AA"/>
</linearGradient>
</defs>
</svg>
